<svg viewBox="1 -23 511.98413 511" xmlns="http://www.w3.org/2000/svg">
    <path
        d="m262.46875 231.871094c1.464844 1.464844 3.382812 2.195312 5.304688 2.195312 1.917968 0 3.839843-.730468 5.304687-2.195312l14.644531-14.648438 14.648438 14.648438c1.464844 1.464844 3.382812 2.195312 5.300781 2.195312 1.921875 0 3.839844-.730468 5.304687-2.195312 2.929688-2.929688 2.929688-7.679688 0-10.605469l-14.644531-14.648437 14.644531-14.644532c2.929688-2.929687 2.929688-7.679687 0-10.609375-2.929687-2.929687-7.675781-2.929687-10.605468 0l-14.648438 14.648438-14.644531-14.648438c-2.929687-2.929687-7.679687-2.929687-10.609375 0-2.925781 2.929688-2.925781 7.679688 0 10.609375l14.648438 14.644532-14.648438 14.648437c-2.929688 2.925781-2.929688 7.675781 0 10.605469zm0 0"  stroke-width="0"/>
    <path
        d="m364.910156 163.722656c-20.605468-20.605468-48.003906-31.953125-77.144531-31.953125s-56.535156 11.347657-77.140625 31.953125c-20.605469 20.605469-31.953125 48-31.953125 77.140625s11.347656 56.535157 31.953125 77.140625c20.605469 20.605469 48 31.953125 77.140625 31.953125s56.539063-11.347656 77.144531-31.953125c42.535156-42.535156 42.535156-111.746094 0-154.28125zm-143.675781 10.605469c17.773437-17.773437 41.398437-27.558594 66.535156-27.558594 25.132813 0 48.761719 9.785157 66.53125 27.558594 25.210938 25.207031 33.097657 61.28125 23.660157 93.289063h-180.441407c-2.53125-8.574219-3.84375-17.5625-3.84375-26.757813 0-25.128906 9.785157-48.757813 27.558594-66.53125zm133.066406 133.066406c-17.769531 17.773438-41.398437 27.5625-66.53125 27.5625-25.136719 0-48.765625-9.789062-66.535156-27.5625-7.355469-7.355469-13.339844-15.71875-17.835937-24.773437h168.667968c-4.425781 8.945312-10.324218 17.335937-17.765625 24.773437zm0 0"  stroke-width="0" />
    <path
        d="m502.945312 412.25-90.507812-90.507812c15.550781-23.863282 23.898438-51.730469 23.898438-80.882813 0-39.683594-15.453126-76.992187-43.515626-105.050781-28.0625-28.0625-65.367187-43.515625-105.054687-43.515625-39.683594 0-76.992187 15.453125-105.054687 43.515625-28.058594 28.058594-43.511719 65.367187-43.511719 105.050781 0 39.6875 15.453125 76.996094 43.511719 105.054687 28.964843 28.964844 67.011718 43.445313 105.054687 43.445313 28.1875 0 56.367187-7.957031 80.859375-23.851563l90.53125 90.53125c6.035156 6.035157 13.964844 9.054688 21.894531 9.054688 7.929688 0 15.859375-3.019531 21.894531-9.054688 12.074219-12.074218 12.074219-31.714843 0-43.789062zm-309.625-76.941406c-25.226562-25.226563-39.121093-58.769532-39.121093-94.445313 0-35.679687 13.894531-69.21875 39.121093-94.445312 25.230469-25.230469 58.769532-39.121094 94.445313-39.121094s69.21875 13.890625 94.449219 39.121094c25.226562 25.226562 39.121094 58.769531 39.121094 94.445312s-13.894532 69.21875-39.121094 94.445313c-52.078125 52.078125-136.816406 52.078125-188.894532 0zm299.019532 110.125c-6.222656 6.222656-16.351563 6.222656-22.574219 0l-88.839844-88.839844c4.109375-3.308594 8.082031-6.863281 11.898438-10.679688 3.796875-3.796874 7.351562-7.769531 10.683593-11.886718l88.832032 88.832031c6.222656 6.222656 6.222656 16.347656 0 22.574219zm0 0"  stroke-width="0" />
    <path
        d="m118.585938 210.402344h-103.585938v-194.910156h461.246094v194.910156h-19.066406c-4.140626 0-7.5 3.355468-7.5 7.5 0 4.140625 3.359374 7.5 7.5 7.5h26.566406c4.140625 0 7.5-3.359375 7.5-7.5v-209.910156c0-4.140626-3.359375-7.5-7.5-7.5h-476.246094c-4.144531 0-7.5 3.359374-7.5 7.5v209.910156c0 4.140625 3.355469 7.5 7.5 7.5h111.085938c4.144531 0 7.5-3.359375 7.5-7.5 0-4.144532-3.355469-7.5-7.5-7.5zm0 0"  stroke-width="0"/>
    <path
        d="m67.3125 52.40625c-4.140625 0-7.5 3.355469-7.5 7.5 0 4.140625 3.359375 7.5 7.5 7.5h356.621094c4.140625 0 7.5-3.359375 7.5-7.5 0-4.144531-3.359375-7.5-7.5-7.5zm0 0"  stroke-width="0"/>
</svg>