<svg xmlns="http://www.w3.org/2000/svg" xmlns:xlink="http://www.w3.org/1999/xlink" width="500" zoomAndPan="magnify" viewBox="0 0 375 187.499995" height="250" preserveAspectRatio="xMidYMid meet" version="1.0"><defs><clipPath id="f0f745887f"><path d="M 0.5 0 L 374.5 0 L 374.5 187 L 0.5 187 Z M 0.5 0 " clip-rule="nonzero"/></clipPath><clipPath id="0bd45e700e"><path d="M 0.5 0 L 374.5 0 L 374.5 182.511719 L 0.5 182.511719 Z M 0.5 0 " clip-rule="nonzero"/></clipPath><clipPath id="77328ea916"><path d="M 143 152 L 213 152 L 213 173 L 143 173 Z M 143 152 " clip-rule="nonzero"/></clipPath><clipPath id="aed847ca7d"><path d="M 143.75 152.921875 L 193.84375 152.921875 C 194.472656 168.597656 212.945312 172.28125 212.945312 172.28125 L 165.652344 172.28125 C 165.652344 172.28125 144.375 168.597656 143.75 152.921875 Z M 143.75 152.921875 " clip-rule="nonzero"/></clipPath><linearGradient x1="353.548" gradientTransform="matrix(0.623322, 0, 0, 0.623836, -42.027869, -33.133792)" y1="298.246983" x2="353.548" gradientUnits="userSpaceOnUse" y2="329.276981" id="74ad171263"><stop stop-opacity="1" stop-color="rgb(93.299866%, 95.698547%, 98.399353%)" offset="0"/><stop stop-opacity="1" stop-color="rgb(93.191528%, 95.628357%, 98.371887%)" offset="0.015625"/><stop stop-opacity="1" stop-color="rgb(92.974854%, 95.487976%, 98.31543%)" offset="0.03125"/><stop stop-opacity="1" stop-color="rgb(92.758179%, 95.347595%, 98.260498%)" offset="0.046875"/><stop stop-opacity="1" stop-color="rgb(92.54303%, 95.207214%, 98.205566%)" offset="0.0625"/><stop stop-opacity="1" stop-color="rgb(92.326355%, 95.065308%, 98.150635%)" offset="0.078125"/><stop stop-opacity="1" stop-color="rgb(92.111206%, 94.924927%, 98.095703%)" offset="0.09375"/><stop stop-opacity="1" stop-color="rgb(91.894531%, 94.784546%, 98.039246%)" offset="0.109375"/><stop stop-opacity="1" stop-color="rgb(91.679382%, 94.644165%, 97.984314%)" offset="0.125"/><stop stop-opacity="1" stop-color="rgb(91.462708%, 94.503784%, 97.929382%)" offset="0.140625"/><stop stop-opacity="1" stop-color="rgb(91.246033%, 94.363403%, 97.874451%)" offset="0.15625"/><stop stop-opacity="1" stop-color="rgb(91.030884%, 94.221497%, 97.819519%)" offset="0.171875"/><stop stop-opacity="1" stop-color="rgb(90.814209%, 94.081116%, 97.763062%)" offset="0.1875"/><stop stop-opacity="1" stop-color="rgb(90.59906%, 93.940735%, 97.70813%)" offset="0.203125"/><stop stop-opacity="1" stop-color="rgb(90.382385%, 93.800354%, 97.653198%)" offset="0.21875"/><stop stop-opacity="1" stop-color="rgb(90.16571%, 93.659973%, 97.598267%)" offset="0.234375"/><stop stop-opacity="1" stop-color="rgb(89.950562%, 93.518066%, 97.541809%)" offset="0.25"/><stop stop-opacity="1" stop-color="rgb(89.733887%, 93.377686%, 97.486877%)" offset="0.265625"/><stop stop-opacity="1" stop-color="rgb(89.518738%, 93.237305%, 97.431946%)" offset="0.28125"/><stop stop-opacity="1" stop-color="rgb(89.302063%, 93.096924%, 97.377014%)" offset="0.296875"/><stop stop-opacity="1" stop-color="rgb(89.08844%, 92.958069%, 97.322083%)" offset="0.3125"/><stop stop-opacity="1" stop-color="rgb(88.804626%, 92.782593%, 97.24884%)" offset="0.34375"/><stop stop-opacity="1" stop-color="rgb(88.452148%, 92.56897%, 97.158813%)" offset="0.375"/><stop stop-opacity="1" stop-color="rgb(88.098145%, 92.355347%, 97.067261%)" offset="0.40625"/><stop stop-opacity="1" stop-color="rgb(87.744141%, 92.14325%, 96.977234%)" offset="0.4375"/><stop stop-opacity="1" stop-color="rgb(87.390137%, 91.929626%, 96.885681%)" offset="0.46875"/><stop stop-opacity="1" stop-color="rgb(87.036133%, 91.716003%, 96.795654%)" offset="0.5"/><stop stop-opacity="1" stop-color="rgb(86.682129%, 91.503906%, 96.704102%)" offset="0.53125"/><stop stop-opacity="1" stop-color="rgb(86.328125%, 91.290283%, 96.614075%)" offset="0.5625"/><stop stop-opacity="1" stop-color="rgb(85.975647%, 91.07666%, 96.524048%)" offset="0.59375"/><stop stop-opacity="1" stop-color="rgb(85.621643%, 90.863037%, 96.432495%)" offset="0.625"/><stop stop-opacity="1" stop-color="rgb(85.267639%, 90.65094%, 96.342468%)" offset="0.65625"/><stop stop-opacity="1" stop-color="rgb(84.913635%, 90.437317%, 96.250916%)" offset="0.6875"/><stop stop-opacity="1" stop-color="rgb(84.559631%, 90.223694%, 96.160889%)" offset="0.71875"/><stop stop-opacity="1" stop-color="rgb(84.205627%, 90.011597%, 96.069336%)" offset="0.75"/><stop stop-opacity="1" stop-color="rgb(83.853149%, 89.797974%, 95.979309%)" offset="0.78125"/><stop stop-opacity="1" stop-color="rgb(83.499146%, 89.584351%, 95.887756%)" offset="0.8125"/><stop stop-opacity="1" stop-color="rgb(83.145142%, 89.370728%, 95.797729%)" offset="0.84375"/><stop stop-opacity="1" stop-color="rgb(82.791138%, 89.15863%, 95.707703%)" offset="0.875"/><stop stop-opacity="1" stop-color="rgb(82.437134%, 88.945007%, 95.61615%)" offset="0.90625"/><stop stop-opacity="1" stop-color="rgb(82.08313%, 88.731384%, 95.526123%)" offset="0.9375"/><stop stop-opacity="1" stop-color="rgb(81.729126%, 88.519287%, 95.43457%)" offset="0.96875"/><stop stop-opacity="1" stop-color="rgb(81.376648%, 88.305664%, 95.344543%)" offset="1"/></linearGradient><clipPath id="d09e710b11"><path d="M 86 132 L 256 132 L 256 156 L 86 156 Z M 86 132 " clip-rule="nonzero"/></clipPath><clipPath id="0964fb0839"><path d="M 91.972656 155.519531 L 251.058594 155.519531 C 253.519531 155.519531 255.410156 153.523438 255.289062 151.0625 L 254.351562 132.273438 L 86.363281 132.273438 L 87.300781 151.0625 C 87.421875 153.527344 89.515625 155.519531 91.972656 155.519531 Z M 91.972656 155.519531 " clip-rule="nonzero"/></clipPath><linearGradient x1="341.48801" gradientTransform="matrix(0.623322, 0, 0, 0.623836, -42.027869, -33.133792)" y1="265.142985" x2="341.48801" gradientUnits="userSpaceOnUse" y2="302.408973" id="543cac8dc9"><stop stop-opacity="1" stop-color="rgb(93.299866%, 95.698547%, 98.399353%)" offset="0"/><stop stop-opacity="1" stop-color="rgb(93.191528%, 95.628357%, 98.371887%)" offset="0.015625"/><stop stop-opacity="1" stop-color="rgb(92.974854%, 95.487976%, 98.31543%)" offset="0.03125"/><stop stop-opacity="1" stop-color="rgb(92.758179%, 95.347595%, 98.260498%)" offset="0.046875"/><stop stop-opacity="1" stop-color="rgb(92.54303%, 95.207214%, 98.205566%)" offset="0.0625"/><stop stop-opacity="1" stop-color="rgb(92.326355%, 95.065308%, 98.150635%)" offset="0.078125"/><stop stop-opacity="1" stop-color="rgb(92.111206%, 94.924927%, 98.095703%)" offset="0.09375"/><stop stop-opacity="1" stop-color="rgb(91.894531%, 94.784546%, 98.039246%)" offset="0.109375"/><stop stop-opacity="1" stop-color="rgb(91.679382%, 94.644165%, 97.984314%)" offset="0.125"/><stop stop-opacity="1" stop-color="rgb(91.462708%, 94.503784%, 97.929382%)" offset="0.140625"/><stop stop-opacity="1" stop-color="rgb(91.246033%, 94.363403%, 97.874451%)" offset="0.15625"/><stop stop-opacity="1" stop-color="rgb(91.030884%, 94.221497%, 97.819519%)" offset="0.171875"/><stop stop-opacity="1" stop-color="rgb(90.814209%, 94.081116%, 97.763062%)" offset="0.1875"/><stop stop-opacity="1" stop-color="rgb(90.59906%, 93.940735%, 97.70813%)" offset="0.203125"/><stop stop-opacity="1" stop-color="rgb(90.382385%, 93.800354%, 97.653198%)" offset="0.21875"/><stop stop-opacity="1" stop-color="rgb(90.16571%, 93.659973%, 97.598267%)" offset="0.234375"/><stop stop-opacity="1" stop-color="rgb(89.950562%, 93.518066%, 97.541809%)" offset="0.25"/><stop stop-opacity="1" stop-color="rgb(89.733887%, 93.377686%, 97.486877%)" offset="0.265625"/><stop stop-opacity="1" stop-color="rgb(89.518738%, 93.237305%, 97.431946%)" offset="0.28125"/><stop stop-opacity="1" stop-color="rgb(89.302063%, 93.096924%, 97.377014%)" offset="0.296875"/><stop stop-opacity="1" stop-color="rgb(89.08844%, 92.958069%, 97.322083%)" offset="0.3125"/><stop stop-opacity="1" stop-color="rgb(88.804626%, 92.782593%, 97.24884%)" offset="0.34375"/><stop stop-opacity="1" stop-color="rgb(88.452148%, 92.56897%, 97.158813%)" offset="0.375"/><stop stop-opacity="1" stop-color="rgb(88.098145%, 92.355347%, 97.067261%)" offset="0.40625"/><stop stop-opacity="1" stop-color="rgb(87.744141%, 92.14325%, 96.977234%)" offset="0.4375"/><stop stop-opacity="1" stop-color="rgb(87.390137%, 91.929626%, 96.885681%)" offset="0.46875"/><stop stop-opacity="1" stop-color="rgb(87.036133%, 91.716003%, 96.795654%)" offset="0.5"/><stop stop-opacity="1" stop-color="rgb(86.682129%, 91.503906%, 96.704102%)" offset="0.53125"/><stop stop-opacity="1" stop-color="rgb(86.328125%, 91.290283%, 96.614075%)" offset="0.5625"/><stop stop-opacity="1" stop-color="rgb(85.975647%, 91.07666%, 96.524048%)" offset="0.59375"/><stop stop-opacity="1" stop-color="rgb(85.621643%, 90.863037%, 96.432495%)" offset="0.625"/><stop stop-opacity="1" stop-color="rgb(85.267639%, 90.65094%, 96.342468%)" offset="0.65625"/><stop stop-opacity="1" stop-color="rgb(84.913635%, 90.437317%, 96.250916%)" offset="0.6875"/><stop stop-opacity="1" stop-color="rgb(84.559631%, 90.223694%, 96.160889%)" offset="0.71875"/><stop stop-opacity="1" stop-color="rgb(84.205627%, 90.011597%, 96.069336%)" offset="0.75"/><stop stop-opacity="1" stop-color="rgb(83.853149%, 89.797974%, 95.979309%)" offset="0.78125"/><stop stop-opacity="1" stop-color="rgb(83.499146%, 89.584351%, 95.887756%)" offset="0.8125"/><stop stop-opacity="1" stop-color="rgb(83.145142%, 89.370728%, 95.797729%)" offset="0.84375"/><stop stop-opacity="1" stop-color="rgb(82.791138%, 89.15863%, 95.707703%)" offset="0.875"/><stop stop-opacity="1" stop-color="rgb(82.437134%, 88.945007%, 95.61615%)" offset="0.90625"/><stop stop-opacity="1" stop-color="rgb(82.08313%, 88.731384%, 95.526123%)" offset="0.9375"/><stop stop-opacity="1" stop-color="rgb(81.729126%, 88.519287%, 95.43457%)" offset="0.96875"/><stop stop-opacity="1" stop-color="rgb(81.376648%, 88.305664%, 95.344543%)" offset="1"/></linearGradient></defs><g clip-path="url(#f0f745887f)"><path fill="#ffffff" d="M 0.5 0 L 374.5 0 L 374.5 187 L 0.5 187 Z M 0.5 0 " fill-opacity="1" fill-rule="nonzero"/><path fill="#ffffff" d="M 0.5 0 L 374.5 0 L 374.5 187 L 0.5 187 Z M 0.5 0 " fill-opacity="1" fill-rule="nonzero"/></g><g clip-path="url(#0bd45e700e)"><rect x="-37.5" width="450" fill="#ffffff" y="-18.749999" height="224.999994" fill-opacity="1"/></g><path fill="#cfe7f7" d="M 222.8125 86.835938 L 216.179688 86.835938 L 216.179688 82.003906 L 222.8125 82.003906 Z M 222.8125 86.835938 " fill-opacity="1" fill-rule="nonzero"/><path fill="#a1d3f3" d="M 212.335938 83.535156 L 227.644531 83.535156 L 227.644531 145.539062 L 212.335938 145.539062 Z M 212.335938 83.535156 " fill-opacity="1" fill-rule="nonzero"/><path fill="#91ccf2" d="M 230.621094 110.660156 L 230.621094 114.320312 L 231.722656 114.320312 L 231.722656 121.65625 L 235.457031 121.65625 L 235.457031 172.664062 L 215.921875 172.664062 L 215.921875 110.660156 Z M 230.621094 110.660156 " fill-opacity="1" fill-rule="nonzero"/><path fill="#f8fafb" d="M 187.273438 67.753906 L 193.683594 67.753906 L 193.683594 68.421875 L 187.273438 68.421875 Z M 187.273438 67.753906 " fill-opacity="1" fill-rule="nonzero"/><path fill="#b5dcf5" d="M 185.671875 68.425781 L 195.285156 68.425781 L 195.285156 79.625 L 185.671875 79.625 Z M 185.671875 68.425781 " fill-opacity="1" fill-rule="nonzero"/><path fill="#badef5" d="M 206.378906 103.035156 L 205.089844 103.035156 L 205.089844 47.613281 L 206.378906 47.613281 Z M 206.378906 103.035156 " fill-opacity="1" fill-rule="nonzero"/><path fill="#badef5" d="M 209.234375 103.035156 L 207.949219 103.035156 L 207.949219 47.613281 L 209.234375 47.613281 Z M 209.234375 103.035156 " fill-opacity="1" fill-rule="nonzero"/><path fill="#fcfcfc" d="M 192.082031 63.753906 L 212.566406 63.753906 L 212.566406 125.503906 L 192.082031 125.503906 Z M 192.082031 63.753906 " fill-opacity="1" fill-rule="nonzero"/><path fill="#cbe6f7" d="M 202.070312 68.214844 L 203.816406 68.214844 L 203.816406 71.050781 L 202.070312 71.050781 Z M 202.070312 68.214844 " fill-opacity="1" fill-rule="nonzero"/><path fill="#cbe6f7" d="M 202.070312 72.96875 L 203.816406 72.96875 L 203.816406 75.804688 L 202.070312 75.804688 Z M 202.070312 72.96875 " fill-opacity="1" fill-rule="nonzero"/><path fill="#cbe6f7" d="M 205.8125 77.722656 L 207.558594 77.722656 L 207.558594 80.558594 L 205.8125 80.558594 Z M 205.8125 77.722656 " fill-opacity="1" fill-rule="nonzero"/><path fill="#e4f1f9" d="M 225.644531 104.539062 L 202.628906 104.539062 L 202.628906 85.953125 Z M 225.644531 104.539062 " fill-opacity="1" fill-rule="nonzero"/><path fill="#fcfcfc" d="M 176.957031 80.035156 L 204.648438 80.035156 L 204.648438 172.664062 L 176.957031 172.664062 Z M 176.957031 80.035156 " fill-opacity="1" fill-rule="nonzero"/><path fill="#badef5" d="M 201.445312 103.015625 L 226.824219 103.015625 L 226.824219 172.664062 L 201.445312 172.664062 Z M 201.445312 103.015625 " fill-opacity="1" fill-rule="nonzero"/><path fill="#a1d3f3" d="M 199.230469 110.660156 L 214.542969 110.660156 L 214.542969 172.667969 L 199.230469 172.667969 Z M 199.230469 110.660156 " fill-opacity="1" fill-rule="nonzero"/><path fill="#fcfcfc" d="M 176.957031 77.320312 L 193.683594 77.320312 L 193.683594 80.035156 L 176.957031 80.035156 Z M 176.957031 77.320312 " fill-opacity="1" fill-rule="nonzero"/><path fill="#cbe6f7" d="M 215.441406 129.324219 L 202.277344 129.324219 L 202.277344 126.777344 L 215.441406 126.777344 Z M 215.441406 129.324219 " fill-opacity="1" fill-rule="nonzero"/><path fill="#cbe6f7" d="M 215.441406 133.984375 L 202.277344 133.984375 L 202.277344 131.433594 L 215.441406 131.433594 Z M 215.441406 133.984375 " fill-opacity="1" fill-rule="nonzero"/><path fill="#cbe6f7" d="M 215.441406 138.640625 L 202.277344 138.640625 L 202.277344 136.089844 L 215.441406 136.089844 Z M 215.441406 138.640625 " fill-opacity="1" fill-rule="nonzero"/><path fill="#cbe6f7" d="M 215.441406 143.296875 L 202.277344 143.296875 L 202.277344 140.746094 L 215.441406 140.746094 Z M 215.441406 143.296875 " fill-opacity="1" fill-rule="nonzero"/><path fill="#cbe6f7" d="M 215.441406 147.953125 L 202.277344 147.953125 L 202.277344 145.40625 L 215.441406 145.40625 Z M 215.441406 147.953125 " fill-opacity="1" fill-rule="nonzero"/><path fill="#cbe6f7" d="M 215.441406 152.613281 L 202.277344 152.613281 L 202.277344 150.0625 L 215.441406 150.0625 Z M 215.441406 152.613281 " fill-opacity="1" fill-rule="nonzero"/><path fill="#cbe6f7" d="M 215.441406 157.269531 L 202.277344 157.269531 L 202.277344 154.71875 L 215.441406 154.71875 Z M 215.441406 157.269531 " fill-opacity="1" fill-rule="nonzero"/><path fill="#cbe6f7" d="M 215.441406 161.925781 L 202.277344 161.925781 L 202.277344 159.375 L 215.441406 159.375 Z M 215.441406 161.925781 " fill-opacity="1" fill-rule="nonzero"/><path fill="#cbe6f7" d="M 215.441406 166.585938 L 202.277344 166.585938 L 202.277344 164.035156 L 215.441406 164.035156 Z M 215.441406 166.585938 " fill-opacity="1" fill-rule="nonzero"/><path fill="#93cdf2" d="M 264.128906 37.066406 L 272.054688 37.066406 L 272.054688 98.402344 L 264.128906 98.402344 Z M 264.128906 37.066406 " fill-opacity="1" fill-rule="nonzero"/><path fill="#badef5" d="M 258.011719 39.382812 L 286.871094 39.382812 L 286.871094 115.171875 L 258.011719 115.171875 Z M 258.011719 39.382812 " fill-opacity="1" fill-rule="nonzero"/><path fill="#fcfcfc" d="M 276.742188 48.546875 L 278.402344 48.546875 L 278.402344 52.5 L 276.742188 52.5 Z M 276.742188 48.546875 " fill-opacity="1" fill-rule="nonzero"/><path fill="#a1d3f3" d="M 279.53125 48.921875 L 281.195312 48.921875 L 281.195312 52.878906 L 279.53125 52.878906 Z M 279.53125 48.921875 " fill-opacity="1" fill-rule="nonzero"/><path fill="#fcfcfc" d="M 273.902344 53.632812 L 275.566406 53.632812 L 275.566406 57.585938 L 273.902344 57.585938 Z M 273.902344 53.632812 " fill-opacity="1" fill-rule="nonzero"/><path fill="#fcfcfc" d="M 279.53125 53.632812 L 281.195312 53.632812 L 281.195312 57.585938 L 279.53125 57.585938 Z M 279.53125 53.632812 " fill-opacity="1" fill-rule="nonzero"/><path fill="#cfe7f7" d="M 276.742188 58.714844 L 278.402344 58.714844 L 278.402344 62.667969 L 276.742188 62.667969 Z M 276.742188 58.714844 " fill-opacity="1" fill-rule="nonzero"/><path fill="#a1d3f3" d="M 273.902344 64.175781 L 275.566406 64.175781 L 275.566406 68.128906 L 273.902344 68.128906 Z M 273.902344 64.175781 " fill-opacity="1" fill-rule="nonzero"/><path fill="#a1d3f3" d="M 276.742188 63.800781 L 278.402344 63.800781 L 278.402344 67.753906 L 276.742188 67.753906 Z M 276.742188 63.800781 " fill-opacity="1" fill-rule="nonzero"/><path fill="#fcfcfc" d="M 279.53125 63.800781 L 281.195312 63.800781 L 281.195312 67.753906 L 279.53125 67.753906 Z M 279.53125 63.800781 " fill-opacity="1" fill-rule="nonzero"/><path fill="#fcfcfc" d="M 273.902344 73.96875 L 275.566406 73.96875 L 275.566406 77.921875 L 273.902344 77.921875 Z M 273.902344 73.96875 " fill-opacity="1" fill-rule="nonzero"/><path fill="#fcfcfc" d="M 279.53125 73.96875 L 281.195312 73.96875 L 281.195312 77.921875 L 279.53125 77.921875 Z M 279.53125 73.96875 " fill-opacity="1" fill-rule="nonzero"/><path fill="#fcfcfc" d="M 276.742188 79.050781 L 278.402344 79.050781 L 278.402344 83.003906 L 276.742188 83.003906 Z M 276.742188 79.050781 " fill-opacity="1" fill-rule="nonzero"/><path fill="#a1d3f3" d="M 279.53125 79.050781 L 281.195312 79.050781 L 281.195312 83.003906 L 279.53125 83.003906 Z M 279.53125 79.050781 " fill-opacity="1" fill-rule="nonzero"/><path fill="#cfe7f7" d="M 273.902344 84.136719 L 275.566406 84.136719 L 275.566406 88.089844 L 273.902344 88.089844 Z M 273.902344 84.136719 " fill-opacity="1" fill-rule="nonzero"/><path fill="#cfe7f7" d="M 276.742188 89.21875 L 278.402344 89.21875 L 278.402344 93.175781 L 276.742188 93.175781 Z M 276.742188 89.21875 " fill-opacity="1" fill-rule="nonzero"/><path fill="#e4f1f9" d="M 259.996094 97.582031 L 254.753906 97.582031 L 254.753906 95.960938 L 259.996094 95.960938 Z M 259.996094 97.582031 " fill-opacity="1" fill-rule="nonzero"/><path fill="#e4f1f9" d="M 260.664062 97.933594 L 254.085938 97.933594 L 254.085938 97.230469 L 260.664062 97.230469 Z M 260.664062 97.933594 " fill-opacity="1" fill-rule="nonzero"/><path fill="#93cdf2" d="M 262.308594 109.75 L 252.441406 109.75 L 252.441406 97.933594 L 262.308594 97.933594 Z M 262.308594 109.75 " fill-opacity="1" fill-rule="nonzero"/><path fill="#a1d3f3" d="M 291.203125 172.667969 L 291.203125 81.800781 L 262.804688 66.464844 L 252.273438 66.464844 L 252.273438 63.761719 L 251.863281 63.761719 L 251.863281 87.761719 L 249.707031 87.761719 L 249.707031 71.625 L 238.101562 71.625 L 238.101562 87.761719 L 236.160156 87.761719 L 236.160156 112.636719 L 233.976562 112.636719 L 233.976562 172.667969 Z M 291.203125 172.667969 " fill-opacity="1" fill-rule="nonzero"/><path fill="#badef5" d="M 268.699219 69.648438 L 268.699219 172.667969 L 291.203125 172.667969 L 291.203125 81.800781 Z M 268.699219 69.648438 " fill-opacity="1" fill-rule="nonzero"/><path fill="#edf5fa" d="M 250.320312 91.976562 L 263.722656 91.976562 L 263.722656 172.667969 L 250.320312 172.667969 Z M 250.320312 91.976562 " fill-opacity="1" fill-rule="nonzero"/><path fill="#9cd1f3" d="M 260.308594 99.898438 L 261.410156 99.898438 L 261.410156 151.285156 L 260.308594 151.285156 Z M 260.308594 99.898438 " fill-opacity="1" fill-rule="nonzero"/><path fill="#9cd1f3" d="M 257.863281 99.898438 L 258.964844 99.898438 L 258.964844 151.285156 L 257.863281 151.285156 Z M 257.863281 99.898438 " fill-opacity="1" fill-rule="nonzero"/><path fill="#9cd1f3" d="M 255.414062 99.898438 L 256.515625 99.898438 L 256.515625 151.285156 L 255.414062 151.285156 Z M 255.414062 99.898438 " fill-opacity="1" fill-rule="nonzero"/><path fill="#9cd1f3" d="M 252.96875 99.898438 L 254.070312 99.898438 L 254.070312 151.285156 L 252.96875 151.285156 Z M 252.96875 99.898438 " fill-opacity="1" fill-rule="nonzero"/><path fill="#badef5" d="M 268.921875 90.308594 L 276.667969 90.308594 L 276.667969 99.875 L 268.921875 99.875 Z M 268.921875 90.308594 " fill-opacity="1" fill-rule="nonzero"/><path fill="#a1d3f3" d="M 170.839844 104.558594 L 180.785156 104.558594 L 180.785156 172.664062 L 170.839844 172.664062 Z M 170.839844 104.558594 " fill-opacity="1" fill-rule="nonzero"/><path fill="#cfe7f7" d="M 164.152344 112.019531 L 146.785156 112.019531 L 146.785156 102.792969 L 164.152344 102.792969 Z M 164.152344 112.019531 " fill-opacity="1" fill-rule="nonzero"/><path fill="#91ccf2" d="M 154.367188 98.027344 L 148.984375 98.027344 L 148.984375 88.796875 L 154.367188 88.796875 Z M 154.367188 98.027344 " fill-opacity="1" fill-rule="nonzero"/><path fill="#91ccf2" d="M 159.433594 101.050781 L 152.410156 101.050781 L 152.410156 94.023438 L 159.433594 94.023438 Z M 159.433594 101.050781 " fill-opacity="1" fill-rule="nonzero"/><path fill="#91ccf2" d="M 146.292969 97.175781 L 145.804688 97.175781 L 145.804688 72.492188 L 146.292969 72.492188 Z M 146.292969 97.175781 " fill-opacity="1" fill-rule="nonzero"/><path fill="#a1d3f3" d="M 159.039062 93.855469 L 177.429688 93.855469 L 177.429688 172.664062 L 159.039062 172.664062 Z M 159.039062 93.855469 " fill-opacity="1" fill-rule="nonzero"/><path fill="#91ccf2" d="M 190.855469 34.769531 L 181.359375 34.769531 L 181.359375 23.40625 L 190.855469 23.40625 Z M 190.855469 34.769531 " fill-opacity="1" fill-rule="nonzero"/><path fill="#bfe1f6" d="M 135.167969 172.667969 L 136.273438 101.175781 L 137.59375 101.175781 L 137.59375 93.847656 L 159.347656 91.230469 L 159.347656 105.660156 L 161.914062 105.660156 L 161.914062 27.050781 L 166.738281 27.050781 L 166.738281 9.273438 L 168.09375 9.273438 L 168.09375 27.050781 L 192.828125 27.050781 L 192.828125 103.855469 L 195.613281 103.855469 L 195.613281 172.667969 Z M 135.167969 172.667969 " fill-opacity="1" fill-rule="nonzero"/><path fill="#cbe6f7" d="M 184.726562 60.90625 L 186.441406 60.90625 L 186.441406 64.992188 L 184.726562 64.992188 Z M 184.726562 60.90625 " fill-opacity="1" fill-rule="nonzero"/><path fill="#cbe6f7" d="M 187.609375 61.292969 L 189.328125 61.292969 L 189.328125 65.382812 L 187.609375 65.382812 Z M 187.609375 61.292969 " fill-opacity="1" fill-rule="nonzero"/><path fill="#cbe6f7" d="M 181.792969 66.160156 L 183.507812 66.160156 L 183.507812 70.246094 L 181.792969 70.246094 Z M 181.792969 66.160156 " fill-opacity="1" fill-rule="nonzero"/><path fill="#cbe6f7" d="M 187.609375 66.160156 L 189.328125 66.160156 L 189.328125 70.246094 L 187.609375 70.246094 Z M 187.609375 66.160156 " fill-opacity="1" fill-rule="nonzero"/><path fill="#cbe6f7" d="M 184.726562 71.414062 L 186.441406 71.414062 L 186.441406 75.5 L 184.726562 75.5 Z M 184.726562 71.414062 " fill-opacity="1" fill-rule="nonzero"/><path fill="#cbe6f7" d="M 181.792969 77.058594 L 183.507812 77.058594 L 183.507812 81.144531 L 181.792969 81.144531 Z M 181.792969 77.058594 " fill-opacity="1" fill-rule="nonzero"/><path fill="#cbe6f7" d="M 181.792969 142.835938 L 183.507812 142.835938 L 183.507812 146.921875 L 181.792969 146.921875 Z M 181.792969 142.835938 " fill-opacity="1" fill-rule="nonzero"/><path fill="#cbe6f7" d="M 181.792969 153.734375 L 183.507812 153.734375 L 183.507812 157.820312 L 181.792969 157.820312 Z M 181.792969 153.734375 " fill-opacity="1" fill-rule="nonzero"/><path fill="#cbe6f7" d="M 184.726562 76.667969 L 186.441406 76.667969 L 186.441406 80.753906 L 184.726562 80.753906 Z M 184.726562 76.667969 " fill-opacity="1" fill-rule="nonzero"/><path fill="#cbe6f7" d="M 187.609375 76.667969 L 189.328125 76.667969 L 189.328125 80.753906 L 187.609375 80.753906 Z M 187.609375 76.667969 " fill-opacity="1" fill-rule="nonzero"/><path fill="#cbe6f7" d="M 181.792969 87.175781 L 183.507812 87.175781 L 183.507812 91.261719 L 181.792969 91.261719 Z M 181.792969 87.175781 " fill-opacity="1" fill-rule="nonzero"/><path fill="#cbe6f7" d="M 187.609375 87.175781 L 189.328125 87.175781 L 189.328125 91.261719 L 187.609375 91.261719 Z M 187.609375 87.175781 " fill-opacity="1" fill-rule="nonzero"/><path fill="#cbe6f7" d="M 184.726562 92.429688 L 186.441406 92.429688 L 186.441406 96.519531 L 184.726562 96.519531 Z M 184.726562 92.429688 " fill-opacity="1" fill-rule="nonzero"/><path fill="#cbe6f7" d="M 187.609375 92.429688 L 189.328125 92.429688 L 189.328125 96.519531 L 187.609375 96.519531 Z M 187.609375 92.429688 " fill-opacity="1" fill-rule="nonzero"/><path fill="#cbe6f7" d="M 187.609375 114.792969 L 189.328125 114.792969 L 189.328125 118.878906 L 187.609375 118.878906 Z M 187.609375 114.792969 " fill-opacity="1" fill-rule="nonzero"/><path fill="#cbe6f7" d="M 187.609375 125.300781 L 189.328125 125.300781 L 189.328125 129.390625 L 187.609375 129.390625 Z M 187.609375 125.300781 " fill-opacity="1" fill-rule="nonzero"/><path fill="#cbe6f7" d="M 187.609375 130.558594 L 189.328125 130.558594 L 189.328125 134.644531 L 187.609375 134.644531 Z M 187.609375 130.558594 " fill-opacity="1" fill-rule="nonzero"/><path fill="#cbe6f7" d="M 181.792969 97.6875 L 183.507812 97.6875 L 183.507812 101.773438 L 181.792969 101.773438 Z M 181.792969 97.6875 " fill-opacity="1" fill-rule="nonzero"/><path fill="#cbe6f7" d="M 184.726562 102.941406 L 186.441406 102.941406 L 186.441406 107.027344 L 184.726562 107.027344 Z M 184.726562 102.941406 " fill-opacity="1" fill-rule="nonzero"/><path fill="#a1d3f3" d="M 142.191406 108.933594 L 155.898438 108.933594 L 155.898438 171.632812 L 142.191406 171.632812 Z M 142.191406 108.933594 " fill-opacity="1" fill-rule="nonzero"/><path fill="#cbe6f7" d="M 168.199219 89.632812 L 170.886719 89.632812 L 170.886719 94.648438 L 168.199219 94.648438 Z M 168.199219 89.632812 " fill-opacity="1" fill-rule="nonzero"/><path fill="#cbe6f7" d="M 143.351562 98.042969 L 146.042969 98.042969 L 146.042969 103.0625 L 143.351562 103.0625 Z M 143.351562 98.042969 " fill-opacity="1" fill-rule="nonzero"/><path fill="#edf5fa" d="M 148.144531 119.636719 L 138.722656 119.636719 L 138.722656 116.644531 L 148.144531 116.644531 Z M 148.144531 119.636719 " fill-opacity="1" fill-rule="nonzero"/><path fill="#edf5fa" d="M 148.144531 125.101562 L 138.722656 125.101562 L 138.722656 122.109375 L 148.144531 122.109375 Z M 148.144531 125.101562 " fill-opacity="1" fill-rule="nonzero"/><path fill="#edf5fa" d="M 148.144531 130.570312 L 138.722656 130.570312 L 138.722656 127.578125 L 148.144531 127.578125 Z M 148.144531 130.570312 " fill-opacity="1" fill-rule="nonzero"/><path fill="#edf5fa" d="M 148.144531 136.039062 L 138.722656 136.039062 L 138.722656 133.042969 L 148.144531 133.042969 Z M 148.144531 136.039062 " fill-opacity="1" fill-rule="nonzero"/><path fill="#edf5fa" d="M 148.144531 141.503906 L 138.722656 141.503906 L 138.722656 138.511719 L 148.144531 138.511719 Z M 148.144531 141.503906 " fill-opacity="1" fill-rule="nonzero"/><path fill="#edf5fa" d="M 148.144531 146.96875 L 138.722656 146.96875 L 138.722656 143.976562 L 148.144531 143.976562 Z M 148.144531 146.96875 " fill-opacity="1" fill-rule="nonzero"/><path fill="#edf5fa" d="M 148.144531 152.4375 L 138.722656 152.4375 L 138.722656 149.445312 L 148.144531 149.445312 Z M 148.144531 152.4375 " fill-opacity="1" fill-rule="nonzero"/><path fill="#edf5fa" d="M 148.144531 157.902344 L 138.722656 157.902344 L 138.722656 154.910156 L 148.144531 154.910156 Z M 148.144531 157.902344 " fill-opacity="1" fill-rule="nonzero"/><path fill="#edf5fa" d="M 148.144531 163.371094 L 138.722656 163.371094 L 138.722656 160.378906 L 148.144531 160.378906 Z M 148.144531 163.371094 " fill-opacity="1" fill-rule="nonzero"/><path fill="#a1d3f3" d="M 168.707031 35.296875 L 192.492188 35.296875 L 192.492188 171.632812 L 168.707031 171.632812 Z M 168.707031 35.296875 " fill-opacity="1" fill-rule="nonzero"/><path fill="#cbe6f7" d="M 193.789062 44.367188 L 180.589844 44.367188 L 180.589844 42.59375 L 193.789062 42.59375 Z M 193.789062 44.367188 " fill-opacity="1" fill-rule="nonzero"/><path fill="#cbe6f7" d="M 193.789062 47.601562 L 180.589844 47.601562 L 180.589844 45.832031 L 193.789062 45.832031 Z M 193.789062 47.601562 " fill-opacity="1" fill-rule="nonzero"/><path fill="#cbe6f7" d="M 193.789062 50.835938 L 180.589844 50.835938 L 180.589844 49.066406 L 193.789062 49.066406 Z M 193.789062 50.835938 " fill-opacity="1" fill-rule="nonzero"/><path fill="#cbe6f7" d="M 193.789062 54.070312 L 180.589844 54.070312 L 180.589844 52.300781 L 193.789062 52.300781 Z M 193.789062 54.070312 " fill-opacity="1" fill-rule="nonzero"/><path fill="#cbe6f7" d="M 193.789062 57.304688 L 180.589844 57.304688 L 180.589844 55.535156 L 193.789062 55.535156 Z M 193.789062 57.304688 " fill-opacity="1" fill-rule="nonzero"/><path fill="#cbe6f7" d="M 193.789062 60.542969 L 180.589844 60.542969 L 180.589844 58.769531 L 193.789062 58.769531 Z M 193.789062 60.542969 " fill-opacity="1" fill-rule="nonzero"/><path fill="#cbe6f7" d="M 193.789062 63.777344 L 180.589844 63.777344 L 180.589844 62.003906 L 193.789062 62.003906 Z M 193.789062 63.777344 " fill-opacity="1" fill-rule="nonzero"/><path fill="#cbe6f7" d="M 193.789062 67.011719 L 180.589844 67.011719 L 180.589844 65.238281 L 193.789062 65.238281 Z M 193.789062 67.011719 " fill-opacity="1" fill-rule="nonzero"/><path fill="#cbe6f7" d="M 193.789062 70.246094 L 180.589844 70.246094 L 180.589844 68.476562 L 193.789062 68.476562 Z M 193.789062 70.246094 " fill-opacity="1" fill-rule="nonzero"/><path fill="#cbe6f7" d="M 193.789062 73.375 L 180.589844 73.375 L 180.589844 71.605469 L 193.789062 71.605469 Z M 193.789062 73.375 " fill-opacity="1" fill-rule="nonzero"/><path fill="#cbe6f7" d="M 193.789062 76.609375 L 180.589844 76.609375 L 180.589844 74.839844 L 193.789062 74.839844 Z M 193.789062 76.609375 " fill-opacity="1" fill-rule="nonzero"/><path fill="#cbe6f7" d="M 193.789062 79.847656 L 180.589844 79.847656 L 180.589844 78.074219 L 193.789062 78.074219 Z M 193.789062 79.847656 " fill-opacity="1" fill-rule="nonzero"/><path fill="#cbe6f7" d="M 193.789062 83.078125 L 180.589844 83.078125 L 180.589844 81.308594 L 193.789062 81.308594 Z M 193.789062 83.078125 " fill-opacity="1" fill-rule="nonzero"/><path fill="#cbe6f7" d="M 193.789062 86.316406 L 180.589844 86.316406 L 180.589844 84.542969 L 193.789062 84.542969 Z M 193.789062 86.316406 " fill-opacity="1" fill-rule="nonzero"/><path fill="#cbe6f7" d="M 193.789062 89.550781 L 180.589844 89.550781 L 180.589844 87.78125 L 193.789062 87.78125 Z M 193.789062 89.550781 " fill-opacity="1" fill-rule="nonzero"/><path fill="#cbe6f7" d="M 193.789062 92.785156 L 180.589844 92.785156 L 180.589844 91.015625 L 193.789062 91.015625 Z M 193.789062 92.785156 " fill-opacity="1" fill-rule="nonzero"/><path fill="#cbe6f7" d="M 193.789062 96.019531 L 180.589844 96.019531 L 180.589844 94.25 L 193.789062 94.25 Z M 193.789062 96.019531 " fill-opacity="1" fill-rule="nonzero"/><path fill="#cbe6f7" d="M 193.789062 99.257812 L 180.589844 99.257812 L 180.589844 97.484375 L 193.789062 97.484375 Z M 193.789062 99.257812 " fill-opacity="1" fill-rule="nonzero"/><path fill="#e4f1f9" d="M 335.265625 103.851562 L 331.945312 103.851562 L 331.945312 102.226562 L 335.265625 102.226562 Z M 335.265625 103.851562 " fill-opacity="1" fill-rule="nonzero"/><path fill="#e4f1f9" d="M 335.6875 104.207031 L 331.519531 104.207031 L 331.519531 103.5 L 335.6875 103.5 Z M 335.6875 104.207031 " fill-opacity="1" fill-rule="nonzero"/><path fill="#e4f1f9" d="M 336.730469 106.042969 L 330.476562 106.042969 L 330.476562 104.207031 L 336.730469 104.207031 Z M 336.730469 106.042969 " fill-opacity="1" fill-rule="nonzero"/><path fill="#e4f1f9" d="M 333.214844 86.183594 L 333.992188 86.183594 L 333.714844 77.699219 L 333.496094 77.699219 Z M 333.214844 86.183594 " fill-opacity="1" fill-rule="nonzero"/><path fill="#e4f1f9" d="M 332.722656 86.042969 L 332.722656 102.578125 L 334.488281 102.578125 L 334.488281 86.042969 Z M 333.722656 93.316406 L 333.957031 93.316406 L 333.957031 101.871094 L 333.722656 101.871094 Z M 333.25 93.316406 L 333.488281 93.316406 L 333.488281 101.871094 L 333.25 101.871094 Z M 333.25 93.316406 " fill-opacity="1" fill-rule="nonzero"/><path fill="#a1d3f3" d="M 338.269531 167.984375 L 325.597656 167.984375 L 325.597656 94.132812 L 338.269531 94.132812 Z M 338.269531 167.984375 " fill-opacity="1" fill-rule="nonzero"/><path fill="#a1d3f3" d="M 333.394531 104.40625 L 330.476562 104.40625 L 330.476562 97.511719 L 333.394531 97.511719 Z M 333.394531 104.40625 " fill-opacity="1" fill-rule="nonzero"/><path fill="#a1d3f3" d="M 331.480469 108.011719 L 344.152344 108.011719 L 344.152344 172.558594 L 331.480469 172.558594 Z M 331.480469 108.011719 " fill-opacity="1" fill-rule="nonzero"/><path fill="#badef5" d="M 324.691406 127.597656 L 341.492188 127.597656 L 341.492188 172.558594 L 324.691406 172.558594 Z M 324.691406 127.597656 " fill-opacity="1" fill-rule="nonzero"/><path fill="#a1d3f3" d="M 336.941406 108.011719 L 338.691406 108.011719 L 338.691406 128.484375 L 336.941406 128.484375 Z M 336.941406 108.011719 " fill-opacity="1" fill-rule="nonzero"/><path fill="#fcfcfc" d="M 344.152344 108.011719 L 329.378906 108.011719 L 329.378906 105.699219 L 344.152344 105.699219 Z M 344.152344 108.011719 " fill-opacity="1" fill-rule="nonzero"/><path fill="#b5dcf5" d="M 320.175781 106.21875 L 320.175781 56.941406 L 316.824219 56.941406 L 316.824219 54.597656 L 316.066406 54.597656 L 316.066406 54.238281 L 315.761719 54.238281 L 315.761719 53.585938 L 315.195312 53.585938 L 315.195312 48.699219 L 314.835938 48.699219 L 314.636719 44.429688 L 314.476562 44.429688 L 314.277344 48.699219 L 313.914062 48.699219 L 313.914062 53.585938 L 313.351562 53.585938 L 313.351562 54.238281 L 313.046875 54.238281 L 313.046875 54.597656 L 312.289062 54.597656 L 312.289062 56.941406 L 302.964844 56.941406 L 297.589844 64.546875 L 297.589844 106.21875 Z M 314.472656 53.40625 L 314.300781 53.40625 L 314.300781 49.027344 L 314.472656 49.027344 Z M 314.8125 53.40625 L 314.640625 53.40625 L 314.640625 49.027344 L 314.8125 49.027344 Z M 314.8125 53.40625 " fill-opacity="1" fill-rule="nonzero"/><path fill="#93cdf2" d="M 294.652344 70.550781 L 305.199219 70.550781 L 305.199219 80.097656 L 294.652344 80.097656 Z M 294.652344 70.550781 " fill-opacity="1" fill-rule="nonzero"/><path fill="#93cdf2" d="M 287.226562 86.148438 L 307.027344 86.148438 L 307.027344 142.964844 L 287.226562 142.964844 Z M 287.226562 86.148438 " fill-opacity="1" fill-rule="nonzero"/><path fill="#fcfcfc" d="M 291.582031 88.265625 L 287.226562 86.148438 L 307.023438 86.148438 Z M 291.582031 88.265625 " fill-opacity="1" fill-rule="nonzero"/><path fill="#a1d3f3" d="M 326.710938 66.296875 L 326.710938 82.207031 L 316.179688 82.207031 L 316.179688 76.070312 L 310.421875 76.070312 L 310.421875 73.519531 L 307.363281 73.519531 L 307.363281 76.070312 L 292.894531 76.070312 C 292.84375 76.171875 292.800781 76.269531 292.742188 76.367188 L 292.742188 103.648438 L 286.683594 103.648438 L 286.683594 172.667969 L 327.671875 172.667969 L 327.671875 66.296875 Z M 326.710938 66.296875 " fill-opacity="1" fill-rule="nonzero"/><path fill="#fcfcfc" d="M 284.875 108.4375 L 295.632812 108.4375 L 295.632812 109.964844 L 284.875 109.964844 Z M 284.875 108.4375 " fill-opacity="1" fill-rule="nonzero"/><path fill="#fcfcfc" d="M 284.875 112.425781 L 295.632812 112.425781 L 295.632812 113.953125 L 284.875 113.953125 Z M 284.875 112.425781 " fill-opacity="1" fill-rule="nonzero"/><path fill="#fcfcfc" d="M 284.875 116.058594 L 295.632812 116.058594 L 295.632812 117.585938 L 284.875 117.585938 Z M 284.875 116.058594 " fill-opacity="1" fill-rule="nonzero"/><path fill="#fcfcfc" d="M 284.875 119.6875 L 295.632812 119.6875 L 295.632812 121.214844 L 284.875 121.214844 Z M 284.875 119.6875 " fill-opacity="1" fill-rule="nonzero"/><path fill="#fcfcfc" d="M 284.875 123.320312 L 295.632812 123.320312 L 295.632812 124.847656 L 284.875 124.847656 Z M 284.875 123.320312 " fill-opacity="1" fill-rule="nonzero"/><path fill="#fcfcfc" d="M 284.875 126.953125 L 295.632812 126.953125 L 295.632812 128.476562 L 284.875 128.476562 Z M 284.875 126.953125 " fill-opacity="1" fill-rule="nonzero"/><path fill="#fcfcfc" d="M 284.875 130.582031 L 295.632812 130.582031 L 295.632812 132.109375 L 284.875 132.109375 Z M 284.875 130.582031 " fill-opacity="1" fill-rule="nonzero"/><path fill="#fcfcfc" d="M 284.875 134.214844 L 295.632812 134.214844 L 295.632812 135.742188 L 284.875 135.742188 Z M 284.875 134.214844 " fill-opacity="1" fill-rule="nonzero"/><path fill="#fcfcfc" d="M 284.875 137.84375 L 295.632812 137.84375 L 295.632812 139.371094 L 284.875 139.371094 Z M 284.875 137.84375 " fill-opacity="1" fill-rule="nonzero"/><path fill="#fcfcfc" d="M 284.875 141.476562 L 295.632812 141.476562 L 295.632812 143.003906 L 284.875 143.003906 Z M 284.875 141.476562 " fill-opacity="1" fill-rule="nonzero"/><path fill="#fcfcfc" d="M 284.875 145.109375 L 295.632812 145.109375 L 295.632812 146.632812 L 284.875 146.632812 Z M 284.875 145.109375 " fill-opacity="1" fill-rule="nonzero"/><path fill="#cfe7f7" d="M 299.925781 82.191406 L 327.671875 82.191406 L 327.671875 172.667969 L 299.925781 172.667969 Z M 299.925781 82.191406 " fill-opacity="1" fill-rule="nonzero"/><path fill="#fcfcfc" d="M 314.734375 102.15625 L 316.863281 102.15625 L 316.863281 105.398438 L 314.734375 105.398438 Z M 314.734375 102.15625 " fill-opacity="1" fill-rule="nonzero"/><path fill="#a1d3f3" d="M 318.308594 102.464844 L 320.4375 102.464844 L 320.4375 105.710938 L 318.308594 105.710938 Z M 318.308594 102.464844 " fill-opacity="1" fill-rule="nonzero"/><path fill="#fcfcfc" d="M 311.097656 106.328125 L 313.226562 106.328125 L 313.226562 109.570312 L 311.097656 109.570312 Z M 311.097656 106.328125 " fill-opacity="1" fill-rule="nonzero"/><path fill="#cfe7f7" d="M 314.734375 110.496094 L 316.863281 110.496094 L 316.863281 113.738281 L 314.734375 113.738281 Z M 314.734375 110.496094 " fill-opacity="1" fill-rule="nonzero"/><path fill="#fcfcfc" d="M 314.734375 86.113281 L 316.863281 86.113281 L 316.863281 89.359375 L 314.734375 89.359375 Z M 314.734375 86.113281 " fill-opacity="1" fill-rule="nonzero"/><path fill="#cfe7f7" d="M 314.734375 94.453125 L 316.863281 94.453125 L 316.863281 97.695312 L 314.734375 97.695312 Z M 314.734375 94.453125 " fill-opacity="1" fill-rule="nonzero"/><path fill="#a1d3f3" d="M 314.734375 114.664062 L 316.863281 114.664062 L 316.863281 117.910156 L 314.734375 117.910156 Z M 314.734375 114.664062 " fill-opacity="1" fill-rule="nonzero"/><path fill="#fcfcfc" d="M 318.308594 98.832031 L 320.4375 98.832031 L 320.4375 102.074219 L 318.308594 102.074219 Z M 318.308594 98.832031 " fill-opacity="1" fill-rule="nonzero"/><path fill="#fcfcfc" d="M 311.097656 144.292969 L 313.226562 144.292969 L 313.226562 147.535156 L 311.097656 147.535156 Z M 311.097656 144.292969 " fill-opacity="1" fill-rule="nonzero"/><path fill="#fcfcfc" d="M 318.308594 123.003906 L 320.4375 123.003906 L 320.4375 126.246094 L 318.308594 126.246094 Z M 318.308594 123.003906 " fill-opacity="1" fill-rule="nonzero"/><path fill="#fcfcfc" d="M 314.734375 127.171875 L 316.863281 127.171875 L 316.863281 130.417969 L 314.734375 130.417969 Z M 314.734375 127.171875 " fill-opacity="1" fill-rule="nonzero"/><path fill="#a1d3f3" d="M 318.308594 127.171875 L 320.4375 127.171875 L 320.4375 130.417969 L 318.308594 130.417969 Z M 318.308594 127.171875 " fill-opacity="1" fill-rule="nonzero"/><path fill="#cfe7f7" d="M 311.097656 131.34375 L 313.226562 131.34375 L 313.226562 134.585938 L 311.097656 134.585938 Z M 311.097656 131.34375 " fill-opacity="1" fill-rule="nonzero"/><path fill="#cfe7f7" d="M 314.734375 144.421875 L 316.863281 144.421875 L 316.863281 147.664062 L 314.734375 147.664062 Z M 314.734375 144.421875 " fill-opacity="1" fill-rule="nonzero"/><path fill="#fcfcfc" d="M 318.308594 135.511719 L 320.4375 135.511719 L 320.4375 138.753906 L 318.308594 138.753906 Z M 318.308594 135.511719 " fill-opacity="1" fill-rule="nonzero"/><path fill="#cfe7f7" d="M 311.097656 148.964844 L 313.226562 148.964844 L 313.226562 152.207031 L 311.097656 152.207031 Z M 311.097656 148.964844 " fill-opacity="1" fill-rule="nonzero"/><path fill="#fcfcfc" d="M 318.308594 153.132812 L 320.4375 153.132812 L 320.4375 156.375 L 318.308594 156.375 Z M 318.308594 153.132812 " fill-opacity="1" fill-rule="nonzero"/><path fill="#fcfcfc" d="M 323.214844 95.441406 L 325.34375 95.441406 L 325.34375 98.683594 L 323.214844 98.683594 Z M 323.214844 95.441406 " fill-opacity="1" fill-rule="nonzero"/><path fill="#cfe7f7" d="M 323.214844 103.777344 L 325.34375 103.777344 L 325.34375 107.023438 L 323.214844 107.023438 Z M 323.214844 103.777344 " fill-opacity="1" fill-rule="nonzero"/><path fill="#cfe7f7" d="M 323.214844 87.738281 L 325.34375 87.738281 L 325.34375 90.980469 L 323.214844 90.980469 Z M 323.214844 87.738281 " fill-opacity="1" fill-rule="nonzero"/><path fill="#a1d3f3" d="M 323.214844 107.949219 L 325.34375 107.949219 L 325.34375 111.191406 L 323.214844 111.191406 Z M 323.214844 107.949219 " fill-opacity="1" fill-rule="nonzero"/><path fill="#fcfcfc" d="M 323.214844 120.457031 L 325.34375 120.457031 L 325.34375 123.699219 L 323.214844 123.699219 Z M 323.214844 120.457031 " fill-opacity="1" fill-rule="nonzero"/><path fill="#cfe7f7" d="M 323.214844 137.707031 L 325.34375 137.707031 L 325.34375 140.949219 L 323.214844 140.949219 Z M 323.214844 137.707031 " fill-opacity="1" fill-rule="nonzero"/><path fill="#c2e1f6" d="M 182.914062 156.625 L 180.785156 156.625 L 180.785156 153.382812 L 182.914062 153.382812 Z M 182.914062 156.625 " fill-opacity="1" fill-rule="nonzero"/><path fill="#55b1eb" d="M 179.339844 156.316406 L 177.210938 156.316406 L 177.210938 153.070312 L 179.339844 153.070312 Z M 179.339844 156.316406 " fill-opacity="0.47" fill-rule="nonzero"/><path fill="#c2e1f6" d="M 186.550781 152.453125 L 184.421875 152.453125 L 184.421875 149.210938 L 186.550781 149.210938 Z M 186.550781 152.453125 " fill-opacity="1" fill-rule="nonzero"/><path fill="#8ccaf1" d="M 182.914062 148.285156 L 180.785156 148.285156 L 180.785156 145.042969 L 182.914062 145.042969 Z M 182.914062 148.285156 " fill-opacity="1" fill-rule="nonzero"/><path fill="#c2e1f6" d="M 182.914062 172.667969 L 180.785156 172.667969 L 180.785156 169.425781 L 182.914062 169.425781 Z M 182.914062 172.667969 " fill-opacity="1" fill-rule="nonzero"/><path fill="#8ccaf1" d="M 182.914062 164.328125 L 180.785156 164.328125 L 180.785156 161.085938 L 182.914062 161.085938 Z M 182.914062 164.328125 " fill-opacity="1" fill-rule="nonzero"/><path fill="#55b1eb" d="M 182.914062 144.117188 L 180.785156 144.117188 L 180.785156 140.871094 L 182.914062 140.871094 Z M 182.914062 144.117188 " fill-opacity="0.47" fill-rule="nonzero"/><path fill="#c2e1f6" d="M 179.339844 159.949219 L 177.210938 159.949219 L 177.210938 156.707031 L 179.339844 156.707031 Z M 179.339844 159.949219 " fill-opacity="1" fill-rule="nonzero"/><path fill="#c2e1f6" d="M 186.550781 114.488281 L 184.421875 114.488281 L 184.421875 111.246094 L 186.550781 111.246094 Z M 186.550781 114.488281 " fill-opacity="1" fill-rule="nonzero"/><path fill="#c2e1f6" d="M 179.339844 135.777344 L 177.210938 135.777344 L 177.210938 132.535156 L 179.339844 132.535156 Z M 179.339844 135.777344 " fill-opacity="1" fill-rule="nonzero"/><path fill="#c2e1f6" d="M 182.914062 131.609375 L 180.785156 131.609375 L 180.785156 128.363281 L 182.914062 128.363281 Z M 182.914062 131.609375 " fill-opacity="1" fill-rule="nonzero"/><path fill="#55b1eb" d="M 179.339844 131.609375 L 177.210938 131.609375 L 177.210938 128.363281 L 179.339844 128.363281 Z M 179.339844 131.609375 " fill-opacity="0.47" fill-rule="nonzero"/><path fill="#8ccaf1" d="M 186.550781 127.4375 L 184.421875 127.4375 L 184.421875 124.195312 L 186.550781 124.195312 Z M 186.550781 127.4375 " fill-opacity="1" fill-rule="nonzero"/><path fill="#8ccaf1" d="M 182.914062 114.359375 L 180.785156 114.359375 L 180.785156 111.117188 L 182.914062 111.117188 Z M 182.914062 114.359375 " fill-opacity="1" fill-rule="nonzero"/><path fill="#c2e1f6" d="M 179.339844 123.269531 L 177.210938 123.269531 L 177.210938 120.027344 L 179.339844 120.027344 Z M 179.339844 123.269531 " fill-opacity="1" fill-rule="nonzero"/><path fill="#8ccaf1" d="M 186.550781 109.816406 L 184.421875 109.816406 L 184.421875 106.574219 L 186.550781 106.574219 Z M 186.550781 109.816406 " fill-opacity="1" fill-rule="nonzero"/><path fill="#c2e1f6" d="M 179.339844 105.648438 L 177.210938 105.648438 L 177.210938 102.40625 L 179.339844 102.40625 Z M 179.339844 105.648438 " fill-opacity="1" fill-rule="nonzero"/><path fill="#fcfcfc" d="M 241.199219 128 L 243.328125 128 L 243.328125 131.242188 L 241.199219 131.242188 Z M 241.199219 128 " fill-opacity="1" fill-rule="nonzero"/><path fill="#a1d3f3" d="M 244.777344 128.308594 L 246.90625 128.308594 L 246.90625 131.554688 L 244.777344 131.554688 Z M 244.777344 128.308594 " fill-opacity="1" fill-rule="nonzero"/><path fill="#fcfcfc" d="M 237.566406 132.171875 L 239.695312 132.171875 L 239.695312 135.414062 L 237.566406 135.414062 Z M 237.566406 132.171875 " fill-opacity="1" fill-rule="nonzero"/><path fill="#cfe7f7" d="M 241.199219 136.339844 L 243.328125 136.339844 L 243.328125 139.582031 L 241.199219 139.582031 Z M 241.199219 136.339844 " fill-opacity="1" fill-rule="nonzero"/><path fill="#fcfcfc" d="M 241.199219 111.957031 L 243.328125 111.957031 L 243.328125 115.203125 L 241.199219 115.203125 Z M 241.199219 111.957031 " fill-opacity="1" fill-rule="nonzero"/><path fill="#cfe7f7" d="M 241.199219 120.296875 L 243.328125 120.296875 L 243.328125 123.539062 L 241.199219 123.539062 Z M 241.199219 120.296875 " fill-opacity="1" fill-rule="nonzero"/><path fill="#a1d3f3" d="M 241.199219 140.507812 L 243.328125 140.507812 L 243.328125 143.75 L 241.199219 143.75 Z M 241.199219 140.507812 " fill-opacity="1" fill-rule="nonzero"/><path fill="#fcfcfc" d="M 244.777344 124.675781 L 246.90625 124.675781 L 246.90625 127.917969 L 244.777344 127.917969 Z M 244.777344 124.675781 " fill-opacity="1" fill-rule="nonzero"/><path fill="#fcfcfc" d="M 244.777344 148.847656 L 246.90625 148.847656 L 246.90625 152.089844 L 244.777344 152.089844 Z M 244.777344 148.847656 " fill-opacity="1" fill-rule="nonzero"/><path fill="#fcfcfc" d="M 241.199219 153.015625 L 243.328125 153.015625 L 243.328125 156.261719 L 241.199219 156.261719 Z M 241.199219 153.015625 " fill-opacity="1" fill-rule="nonzero"/><path fill="#a1d3f3" d="M 244.777344 153.015625 L 246.90625 153.015625 L 246.90625 156.261719 L 244.777344 156.261719 Z M 244.777344 153.015625 " fill-opacity="1" fill-rule="nonzero"/><path fill="#cfe7f7" d="M 237.566406 157.1875 L 239.695312 157.1875 L 239.695312 160.429688 L 237.566406 160.429688 Z M 237.566406 157.1875 " fill-opacity="1" fill-rule="nonzero"/><path fill="#fcfcfc" d="M 244.777344 161.355469 L 246.90625 161.355469 L 246.90625 164.597656 L 244.777344 164.597656 Z M 244.777344 161.355469 " fill-opacity="1" fill-rule="nonzero"/><path fill="#e4f1f9" d="M 87.488281 95.71875 L 91.402344 95.71875 L 91.402344 96.929688 L 87.488281 96.929688 Z M 87.488281 95.71875 " fill-opacity="1" fill-rule="nonzero"/><path fill="#e4f1f9" d="M 86.988281 96.664062 L 91.902344 96.664062 L 91.902344 97.191406 L 86.988281 97.191406 Z M 86.988281 96.664062 " fill-opacity="1" fill-rule="nonzero"/><path fill="#93cdf2" d="M 85.761719 97.191406 L 93.128906 97.191406 L 93.128906 106.019531 L 85.761719 106.019531 Z M 85.761719 97.191406 " fill-opacity="1" fill-rule="nonzero"/><path fill="#a1d3f3" d="M 61.46875 172.667969 L 61.46875 104.796875 L 64.351562 109.25 L 72.21875 109.25 L 72.21875 91.320312 L 72.523438 91.320312 L 72.523438 109.25 L 74.132812 109.25 L 74.132812 97.195312 L 82.804688 97.195312 L 82.804688 109.25 L 84.253906 109.25 L 84.253906 127.828125 L 85.886719 127.828125 L 85.886719 172.667969 Z M 61.46875 172.667969 " fill-opacity="1" fill-rule="nonzero"/><path fill="#edf5fa" d="M 75.898438 112.398438 L 85.910156 112.398438 L 85.910156 172.667969 L 75.898438 172.667969 Z M 75.898438 112.398438 " fill-opacity="1" fill-rule="nonzero"/><path fill="#9cd1f3" d="M 78.445312 149.933594 L 77.625 149.933594 L 77.625 111.550781 L 78.445312 111.550781 Z M 78.445312 149.933594 " fill-opacity="1" fill-rule="nonzero"/><path fill="#9cd1f3" d="M 80.277344 149.933594 L 79.453125 149.933594 L 79.453125 111.550781 L 80.277344 111.550781 Z M 80.277344 149.933594 " fill-opacity="1" fill-rule="nonzero"/><path fill="#9cd1f3" d="M 82.105469 149.933594 L 81.28125 149.933594 L 81.28125 111.550781 L 82.105469 111.550781 Z M 82.105469 149.933594 " fill-opacity="1" fill-rule="nonzero"/><path fill="#9cd1f3" d="M 83.929688 149.933594 L 83.109375 149.933594 L 83.109375 111.550781 L 83.929688 111.550781 Z M 83.929688 149.933594 " fill-opacity="1" fill-rule="nonzero"/><path fill="#91ccf2" d="M 94.738281 172.667969 L 76.699219 172.667969 L 76.699219 69.632812 L 94.738281 69.632812 Z M 94.738281 172.667969 " fill-opacity="1" fill-rule="nonzero"/><path fill="#93cdf2" d="M 85.261719 76.382812 L 78.121094 76.382812 L 78.121094 66.835938 L 85.261719 66.835938 Z M 85.261719 76.382812 " fill-opacity="1" fill-rule="nonzero"/><path fill="#e4f1f9" d="M 52.703125 144.066406 L 63.621094 144.066406 L 63.621094 107.621094 Z M 52.703125 144.066406 " fill-opacity="1" fill-rule="nonzero"/><path fill="#91ccf2" d="M 61.433594 123.3125 L 48.027344 123.3125 L 48.027344 66.496094 L 61.433594 66.496094 Z M 61.433594 123.3125 " fill-opacity="1" fill-rule="nonzero"/><path fill="#fcfcfc" d="M 58.484375 68.613281 L 61.433594 66.492188 L 48.027344 66.492188 Z M 58.484375 68.613281 " fill-opacity="1" fill-rule="nonzero"/><path fill="#f8fafb" d="M 68.71875 103.402344 L 62.488281 103.402344 L 62.488281 102.796875 L 68.71875 102.796875 Z M 68.71875 103.402344 " fill-opacity="1" fill-rule="nonzero"/><path fill="#cfe7f7" d="M 36.460938 172.667969 L 36.460938 66.296875 L 40.515625 66.296875 L 40.515625 82.207031 L 42.585938 82.207031 L 42.585938 76.070312 L 46.484375 76.070312 L 46.484375 70.65625 L 48.554688 70.65625 L 48.554688 76.070312 L 58.457031 76.070312 L 58.457031 103.648438 L 64.4375 103.648438 L 64.4375 122.546875 L 70.066406 122.546875 L 70.066406 139.382812 L 71.941406 139.382812 L 71.941406 104.0625 L 74.105469 88.96875 L 81.777344 89.21875 L 83.265625 99.242188 L 83.265625 172.667969 Z M 36.460938 172.667969 " fill-opacity="1" fill-rule="nonzero"/><path fill="#91ccf2" d="M 43.800781 82.230469 L 45.0625 82.230469 L 45.0625 172.160156 L 43.800781 172.160156 Z M 43.800781 82.230469 " fill-opacity="1" fill-rule="nonzero"/><path fill="#91ccf2" d="M 46.601562 82.230469 L 47.863281 82.230469 L 47.863281 172.160156 L 46.601562 172.160156 Z M 46.601562 82.230469 " fill-opacity="1" fill-rule="nonzero"/><path fill="#91ccf2" d="M 49.402344 127.457031 L 50.664062 127.457031 L 50.664062 172.160156 L 49.402344 172.160156 Z M 49.402344 127.457031 " fill-opacity="1" fill-rule="nonzero"/><path fill="#91ccf2" d="M 52.203125 127.457031 L 53.464844 127.457031 L 53.464844 172.160156 L 52.203125 172.160156 Z M 52.203125 127.457031 " fill-opacity="1" fill-rule="nonzero"/><path fill="#badef5" d="M 79.589844 89.875 L 73.804688 89.875 L 73.804688 82.734375 L 79.589844 82.734375 Z M 79.589844 89.875 " fill-opacity="1" fill-rule="nonzero"/><path fill="#91ccf2" d="M 48.175781 125.351562 L 56.621094 125.351562 L 56.621094 172.664062 L 48.175781 172.664062 Z M 48.175781 125.351562 " fill-opacity="1" fill-rule="nonzero"/><path fill="#a1d3f3" d="M 88.523438 54.859375 L 103.832031 54.859375 L 103.832031 172.667969 L 88.523438 172.667969 Z M 88.523438 54.859375 " fill-opacity="1" fill-rule="nonzero"/><path fill="#b5dcf5" d="M 128.351562 48.113281 L 108.398438 48.113281 L 108.398438 46.074219 L 128.351562 46.074219 Z M 128.351562 48.113281 " fill-opacity="1" fill-rule="nonzero"/><path fill="#b5dcf5" d="M 128.351562 51.84375 L 108.398438 51.84375 L 108.398438 49.800781 L 128.351562 49.800781 Z M 128.351562 51.84375 " fill-opacity="1" fill-rule="nonzero"/><path fill="#b5dcf5" d="M 128.351562 55.570312 L 108.398438 55.570312 L 108.398438 53.527344 L 128.351562 53.527344 Z M 128.351562 55.570312 " fill-opacity="1" fill-rule="nonzero"/><path fill="#b5dcf5" d="M 128.351562 59.292969 L 108.398438 59.292969 L 108.398438 57.253906 L 128.351562 57.253906 Z M 128.351562 59.292969 " fill-opacity="1" fill-rule="nonzero"/><path fill="#b5dcf5" d="M 128.351562 63.019531 L 108.398438 63.019531 L 108.398438 60.980469 L 128.351562 60.980469 Z M 128.351562 63.019531 " fill-opacity="1" fill-rule="nonzero"/><path fill="#b5dcf5" d="M 128.351562 66.746094 L 108.398438 66.746094 L 108.398438 64.707031 L 128.351562 64.707031 Z M 128.351562 66.746094 " fill-opacity="1" fill-rule="nonzero"/><path fill="#b5dcf5" d="M 128.351562 70.476562 L 108.398438 70.476562 L 108.398438 68.433594 L 128.351562 68.433594 Z M 128.351562 70.476562 " fill-opacity="1" fill-rule="nonzero"/><path fill="#b5dcf5" d="M 128.351562 74.203125 L 108.398438 74.203125 L 108.398438 72.160156 L 128.351562 72.160156 Z M 128.351562 74.203125 " fill-opacity="1" fill-rule="nonzero"/><path fill="#b5dcf5" d="M 128.351562 77.929688 L 108.398438 77.929688 L 108.398438 75.886719 L 128.351562 75.886719 Z M 128.351562 77.929688 " fill-opacity="1" fill-rule="nonzero"/><path fill="#b5dcf5" d="M 90.695312 172.667969 L 126.398438 172.667969 L 126.738281 43.597656 L 90.695312 39.261719 Z M 90.695312 172.667969 " fill-opacity="1" fill-rule="nonzero"/><path fill="#77c0ef" d="M 90.695312 172.667969 L 97.9375 172.667969 L 98.351562 43.316406 L 90.695312 39.261719 Z M 90.695312 172.667969 " fill-opacity="1" fill-rule="nonzero"/><path fill="#fcfcfc" d="M 98.351562 43.316406 L 126.738281 43.597656 L 90.695312 39.261719 Z M 98.351562 43.316406 " fill-opacity="1" fill-rule="nonzero"/><path fill="#a1d3f3" d="M 103.71875 172.667969 L 103.71875 83.984375 L 118.40625 83.984375 L 126.304688 93.484375 L 126.304688 172.667969 Z M 103.71875 172.667969 " fill-opacity="1" fill-rule="nonzero"/><path fill="#badef5" d="M 126.304688 93.484375 L 118.40625 83.984375 L 103.71875 83.984375 Z M 126.304688 93.484375 " fill-opacity="1" fill-rule="nonzero"/><path fill="#e4f1f9" d="M 112.996094 108.339844 L 114.078125 108.339844 L 114.078125 172.667969 L 112.996094 172.667969 Z M 112.996094 108.339844 " fill-opacity="0.43" fill-rule="nonzero"/><path fill="#e4f1f9" d="M 115.398438 108.339844 L 116.476562 108.339844 L 116.476562 172.667969 L 115.398438 172.667969 Z M 115.398438 108.339844 " fill-opacity="0.43" fill-rule="nonzero"/><path fill="#e4f1f9" d="M 117.796875 108.339844 L 118.878906 108.339844 L 118.878906 172.667969 L 117.796875 172.667969 Z M 117.796875 108.339844 " fill-opacity="0.43" fill-rule="nonzero"/><path fill="#e4f1f9" d="M 120.199219 108.339844 L 121.28125 108.339844 L 121.28125 172.667969 L 120.199219 172.667969 Z M 120.199219 108.339844 " fill-opacity="0.43" fill-rule="nonzero"/><path fill="#cfe7f7" d="M 108.390625 172.664062 L 99.597656 172.664062 L 99.597656 110.542969 L 108.390625 110.542969 Z M 108.390625 172.664062 " fill-opacity="1" fill-rule="nonzero"/><path fill="#cfe7f7" d="M 132.503906 172.667969 L 125.871094 172.667969 L 125.871094 92.9375 L 132.503906 92.9375 Z M 132.503906 172.667969 " fill-opacity="1" fill-rule="nonzero"/><path fill="#fcfcfc" d="M 85.898438 159.019531 L 84.503906 159.019531 L 84.503906 155.699219 L 85.898438 155.699219 Z M 85.898438 159.019531 " fill-opacity="1" fill-rule="nonzero"/><path fill="#a1d3f3" d="M 83.554688 158.703125 L 82.160156 158.703125 L 82.160156 155.382812 L 83.554688 155.382812 Z M 83.554688 158.703125 " fill-opacity="1" fill-rule="nonzero"/><path fill="#fcfcfc" d="M 88.28125 154.75 L 86.886719 154.75 L 86.886719 151.429688 L 88.28125 151.429688 Z M 88.28125 154.75 " fill-opacity="1" fill-rule="nonzero"/><path fill="#cfe7f7" d="M 85.898438 150.484375 L 84.503906 150.484375 L 84.503906 147.164062 L 85.898438 147.164062 Z M 85.898438 150.484375 " fill-opacity="1" fill-rule="nonzero"/><path fill="#a1d3f3" d="M 85.898438 146.214844 L 84.503906 146.214844 L 84.503906 142.894531 L 85.898438 142.894531 Z M 85.898438 146.214844 " fill-opacity="1" fill-rule="nonzero"/><path fill="#fcfcfc" d="M 83.554688 146.214844 L 82.160156 146.214844 L 82.160156 142.894531 L 83.554688 142.894531 Z M 83.554688 146.214844 " fill-opacity="1" fill-rule="nonzero"/><path fill="#fcfcfc" d="M 88.28125 137.679688 L 86.886719 137.679688 L 86.886719 134.359375 L 88.28125 134.359375 Z M 88.28125 137.679688 " fill-opacity="1" fill-rule="nonzero"/><path fill="#fcfcfc" d="M 83.554688 137.679688 L 82.160156 137.679688 L 82.160156 134.359375 L 83.554688 134.359375 Z M 83.554688 137.679688 " fill-opacity="1" fill-rule="nonzero"/><path fill="#fcfcfc" d="M 85.898438 116.828125 L 84.503906 116.828125 L 84.503906 113.507812 L 85.898438 113.507812 Z M 85.898438 116.828125 " fill-opacity="1" fill-rule="nonzero"/><path fill="#a1d3f3" d="M 83.554688 116.511719 L 82.160156 116.511719 L 82.160156 113.191406 L 83.554688 113.191406 Z M 83.554688 116.511719 " fill-opacity="1" fill-rule="nonzero"/><path fill="#fcfcfc" d="M 88.28125 112.558594 L 86.886719 112.558594 L 86.886719 109.238281 L 88.28125 109.238281 Z M 88.28125 112.558594 " fill-opacity="1" fill-rule="nonzero"/><path fill="#cfe7f7" d="M 85.898438 108.289062 L 84.503906 108.289062 L 84.503906 104.972656 L 85.898438 104.972656 Z M 85.898438 108.289062 " fill-opacity="1" fill-rule="nonzero"/><path fill="#a1d3f3" d="M 85.898438 104.023438 L 84.503906 104.023438 L 84.503906 100.703125 L 85.898438 100.703125 Z M 85.898438 104.023438 " fill-opacity="1" fill-rule="nonzero"/><path fill="#fcfcfc" d="M 83.554688 104.023438 L 82.160156 104.023438 L 82.160156 100.703125 L 83.554688 100.703125 Z M 83.554688 104.023438 " fill-opacity="1" fill-rule="nonzero"/><path fill="#fcfcfc" d="M 88.28125 95.488281 L 86.886719 95.488281 L 86.886719 92.167969 L 88.28125 92.167969 Z M 88.28125 95.488281 " fill-opacity="1" fill-rule="nonzero"/><path fill="#fcfcfc" d="M 83.554688 95.488281 L 82.160156 95.488281 L 82.160156 92.167969 L 83.554688 92.167969 Z M 83.554688 95.488281 " fill-opacity="1" fill-rule="nonzero"/><path fill="#fcfcfc" d="M 85.898438 133.410156 L 84.503906 133.410156 L 84.503906 130.09375 L 85.898438 130.09375 Z M 85.898438 133.410156 " fill-opacity="1" fill-rule="nonzero"/><path fill="#a1d3f3" d="M 83.554688 133.410156 L 82.160156 133.410156 L 82.160156 130.09375 L 83.554688 130.09375 Z M 83.554688 133.410156 " fill-opacity="1" fill-rule="nonzero"/><path fill="#cfe7f7" d="M 88.28125 129.144531 L 86.886719 129.144531 L 86.886719 125.824219 L 88.28125 125.824219 Z M 88.28125 129.144531 " fill-opacity="1" fill-rule="nonzero"/><path fill="#cfe7f7" d="M 85.898438 124.875 L 84.503906 124.875 L 84.503906 121.554688 L 85.898438 121.554688 Z M 85.898438 124.875 " fill-opacity="1" fill-rule="nonzero"/><path fill="#fcfcfc" d="M 83.554688 124.875 L 82.160156 124.875 L 82.160156 121.554688 L 83.554688 121.554688 Z M 83.554688 124.875 " fill-opacity="1" fill-rule="nonzero"/><path fill="#4e5683" d="M 139.640625 152.921875 L 180.183594 152.921875 C 180.8125 168.597656 199.285156 172.28125 199.285156 172.28125 L 157.746094 172.28125 C 157.746094 172.28125 140.265625 168.597656 139.640625 152.921875 Z M 139.640625 152.921875 " fill-opacity="1" fill-rule="nonzero"/><g clip-path="url(#77328ea916)"><g clip-path="url(#aed847ca7d)"><path fill="url(#74ad171263)" d="M 143.75 152.921875 L 143.75 172.28125 L 212.945312 172.28125 L 212.945312 152.921875 Z M 143.75 152.921875 " fill-rule="nonzero"/></g></g><path fill="#4e5683" d="M 89.792969 156.214844 L 247.882812 156.214844 C 250.339844 156.214844 255.21875 154.21875 255.097656 151.757812 L 246.378906 36.992188 C 246.257812 34.53125 244.164062 32.535156 241.703125 32.535156 L 85.214844 32.535156 C 82.757812 32.535156 79.308594 35.226562 79.433594 37.6875 L 85.117188 151.757812 C 85.242188 154.21875 87.332031 156.214844 89.792969 156.214844 Z M 89.792969 156.214844 " fill-opacity="1" fill-rule="nonzero"/><path fill="#4e5683" d="M 91.972656 155.519531 L 251.058594 155.519531 C 253.519531 155.519531 255.410156 153.523438 255.289062 151.0625 L 249.601562 36.992188 C 249.480469 34.53125 247.386719 32.535156 244.929688 32.535156 L 85.84375 32.535156 C 83.386719 32.535156 81.492188 34.53125 81.613281 36.992188 L 87.300781 151.0625 C 87.421875 153.527344 89.515625 155.519531 91.972656 155.519531 Z M 91.972656 155.519531 " fill-opacity="1" fill-rule="nonzero"/><g clip-path="url(#d09e710b11)"><g clip-path="url(#0964fb0839)"><path fill="url(#543cac8dc9)" d="M 86.363281 132.273438 L 86.363281 155.519531 L 255.410156 155.519531 L 255.410156 132.273438 Z M 86.363281 132.273438 " fill-rule="nonzero"/></g></g><path fill="#ffffff" d="M 248.242188 126.878906 L 243.832031 38.382812 L 87.523438 38.382812 L 91.933594 126.878906 Z M 248.242188 126.878906 " fill-opacity="1" fill-rule="nonzero"/><path fill="#319188" d="M 61.058594 157.246094 C 61.058594 157.246094 62.585938 138.273438 59.078125 133.917969 C 56.109375 130.230469 58.164062 124.722656 58.867188 123.117188 C 58.992188 122.835938 58.96875 122.511719 58.804688 122.253906 C 58.058594 121.078125 56.128906 117.597656 57.191406 114.601562 C 58.167969 111.851562 60.257812 110.269531 61.242188 109.648438 C 61.554688 109.453125 61.71875 109.082031 61.660156 108.71875 C 61.214844 106.011719 60.15625 95.355469 70.667969 92.917969 C 71.058594 92.828125 71.460938 93.011719 71.667969 93.355469 C 72.296875 94.410156 73.554688 96.914062 73.984375 100.644531 C 74.429688 104.492188 72.644531 107.875 71.765625 109.28125 C 71.523438 109.664062 71.585938 110.164062 71.925781 110.464844 C 72.996094 111.417969 74.976562 113.679688 74.054688 116.773438 C 73.136719 119.851562 72.066406 121.601562 71.570312 122.300781 C 71.40625 122.535156 71.359375 122.832031 71.445312 123.105469 C 71.867188 124.488281 72.941406 128.835938 71.296875 132.96875 C 69.308594 137.96875 61.761719 157.675781 62.269531 166.871094 C 62.269531 166.871094 61.671875 164.542969 61.058594 157.246094 Z M 61.058594 157.246094 " fill-opacity="1" fill-rule="nonzero"/><path stroke-linecap="round" transform="matrix(0.623322, 0, 0, 0.623836, -42.027868, -33.133795)" fill="none" stroke-linejoin="round" d="M 178.699346 209.391412 C 178.699346 209.391412 169.712719 232.860105 165.413677 301.775911 " stroke="#21295b" stroke-width="0.5" stroke-opacity="1" stroke-miterlimit="10"/><path fill="#4fae86" d="M 62.507812 151.445312 C 62.507812 151.445312 61.242188 136.148438 64.207031 131.511719 C 66.71875 127.582031 64 122.273438 63.109375 120.746094 C 62.957031 120.476562 62.941406 120.15625 63.078125 119.875 C 63.675781 118.636719 65.171875 115.015625 63.757812 112.132812 C 62.453125 109.476562 60.175781 108.085938 59.125 107.554688 C 58.792969 107.386719 58.585938 107.046875 58.601562 106.679688 C 58.722656 103.972656 58.507812 93.253906 47.75 91.730469 C 47.347656 91.675781 46.953125 91.902344 46.785156 92.273438 C 46.285156 93.394531 45.347656 95.980469 45.371094 99.703125 C 45.390625 103.574219 47.582031 106.789062 48.625 108.105469 C 48.90625 108.460938 48.894531 108.96875 48.589844 109.308594 C 47.636719 110.355469 45.957031 112.765625 47.242188 115.753906 C 48.535156 118.753906 49.820312 120.402344 50.386719 121.046875 C 50.574219 121.257812 50.652344 121.542969 50.601562 121.820312 C 50.351562 123.222656 49.796875 127.648438 51.933594 131.625 C 54.515625 136.425781 59.773438 154.472656 60.375 163.660156 C 60.378906 163.664062 62.773438 158.753906 62.507812 151.445312 Z M 62.507812 151.445312 " fill-opacity="1" fill-rule="nonzero"/><path fill="#6ce08b" d="M 52.476562 121.0625 C 45.976562 110.867188 37.582031 108.878906 34.902344 108.496094 C 34.394531 108.425781 33.917969 108.78125 33.851562 109.292969 C 33.679688 110.652344 33.804688 113.328125 36.78125 115.460938 L 39.976562 117.75 C 40.445312 118.085938 40.484375 118.75 40.085938 119.164062 C 38.992188 120.292969 37.710938 122.6875 41.824219 125.878906 C 45.585938 128.792969 47.730469 130.671875 48.773438 131.632812 C 49.183594 132.011719 49.167969 132.652344 48.75 133.019531 C 47.570312 134.050781 45.855469 136.273438 48.738281 138.953125 C 52.734375 142.675781 59.519531 157.949219 60.292969 164.617188 C 60.289062 164.617188 60.320312 133.363281 52.476562 121.0625 Z M 52.476562 121.0625 " fill-opacity="1" fill-rule="nonzero"/><path fill="#6ce08b" d="M 69.765625 112.648438 C 76.265625 102.453125 84.660156 100.464844 87.339844 100.082031 C 87.847656 100.011719 88.324219 100.367188 88.390625 100.875 C 88.5625 102.238281 88.4375 104.914062 85.460938 107.046875 L 82.265625 109.335938 C 81.796875 109.667969 81.753906 110.335938 82.15625 110.75 C 83.25 111.875 84.53125 114.273438 80.417969 117.460938 C 76.652344 120.378906 74.511719 122.257812 73.46875 123.21875 C 73.058594 123.59375 73.070312 124.238281 73.492188 124.605469 C 74.671875 125.636719 76.386719 127.855469 73.503906 130.539062 C 69.507812 134.261719 62.722656 149.535156 61.949219 156.203125 C 61.949219 156.203125 61.921875 124.945312 69.765625 112.648438 Z M 69.765625 112.648438 " fill-opacity="1" fill-rule="nonzero"/><path fill="#4fae86" d="M 62.152344 155.121094 C 66.082031 145.804688 67.511719 138.171875 72.800781 129.269531 C 75.929688 124.003906 79.511719 113.820312 90.078125 107.769531 C 90.714844 107.40625 91.5 107.886719 91.480469 108.621094 C 91.390625 111.546875 90.890625 117.671875 88.292969 120.320312 C 86.910156 121.726562 86.066406 122.554688 85.546875 123.042969 C 85.164062 123.40625 85.15625 124.007812 85.53125 124.382812 C 86.628906 125.480469 88.042969 127.925781 84.027344 131.277344 C 80.375 134.328125 78.175781 136.066406 77.101562 136.898438 C 76.683594 137.214844 76.621094 137.808594 76.949219 138.21875 C 77.855469 139.359375 79.03125 141.714844 75.859375 144.019531 C 69.339844 148.757812 63.828125 156.453125 60.269531 164.460938 Z M 62.152344 155.121094 " fill-opacity="1" fill-rule="nonzero"/><path stroke-linecap="round" transform="matrix(0.623322, 0, 0, 0.623836, -42.027868, -33.133795)" fill="none" stroke-linejoin="round" d="M 165.413677 313.222221 C 168.785229 250.693306 146.356264 206.786562 146.356264 206.786562 " stroke="#21295b" stroke-width="0.5" stroke-opacity="1" stroke-miterlimit="10"/><path stroke-linecap="round" transform="matrix(0.623322, 0, 0, 0.623836, -42.027868, -33.133795)" fill="none" stroke-linejoin="round" d="M 210.014668 231.513849 C 210.014668 231.513849 174.018028 276.39115 166.084228 312.057553 " stroke="#21295b" stroke-width="0.5" stroke-opacity="1" stroke-miterlimit="10"/><path stroke-linecap="round" transform="matrix(0.623322, 0, 0, 0.623836, -42.027868, -33.133795)" fill="none" stroke-linejoin="round" d="M 176.957168 329.089262 L 157.692949 329.089262 C 153.431509 329.089262 149.828084 325.933386 149.26407 321.713029 L 144.946228 289.434183 L 189.710156 289.434183 L 185.392314 321.713029 C 184.822033 325.933386 181.218609 329.089262 176.957168 329.089262 Z M 176.957168 329.089262 " stroke="#21295b" stroke-width="0.5" stroke-opacity="1" stroke-miterlimit="10"/><path fill="#4e5683" d="M 50.210938 161.574219 L 51.011719 167.5625 C 51.363281 170.195312 53.609375 172.164062 56.265625 172.164062 L 68.273438 172.164062 C 70.929688 172.164062 73.175781 170.195312 73.527344 167.5625 L 74.328125 161.574219 Z M 50.210938 161.574219 " fill-opacity="1" fill-rule="nonzero"/><path stroke-linecap="round" transform="matrix(0.623322, 0, 0, 0.623836, -42.027868, -33.133795)" fill="none" stroke-linejoin="round" d="M 142.10109 281.707297 L 192.711965 281.707297 L 192.711965 289.139885 L 142.10109 289.139885 Z M 142.10109 281.707297 " stroke="#21295b" stroke-width="0.5" stroke-opacity="1" stroke-miterlimit="10"/><path stroke-linecap="butt" transform="matrix(0.623322, 0, 0, 0.623836, -42.027868, -33.133795)" fill="none" stroke-linejoin="miter" d="M 413.32926 178.440037 L 269.699906 178.440037 C 267.832393 178.440037 266.322088 176.924716 266.322088 175.058742 L 266.322088 158.834787 C 266.322088 156.968813 267.832393 155.453492 269.699906 155.453492 L 413.32926 155.453492 C 415.196774 155.453492 416.707079 156.968813 416.707079 158.834787 L 416.707079 175.058742 C 416.707079 176.924716 415.196774 178.440037 413.32926 178.440037 Z M 413.32926 178.440037 " stroke="#4e5683" stroke-width="1" stroke-opacity="1" stroke-miterlimit="10"/><path fill="#ffffff" d="M 235.933594 88.320312 C 235.492188 88.613281 235.007812 88.820312 234.5 88.980469 C 229.808594 90.457031 222.582031 86.34375 217.792969 79.128906 C 213 71.914062 212.007812 63.652344 215.1875 59.898438 C 215.53125 59.492188 215.90625 59.121094 216.347656 58.828125 C 220.871094 55.820312 229.179688 60.03125 234.488281 68.023438 C 239.796875 76.015625 240.457031 85.3125 235.933594 88.320312 Z M 235.933594 88.320312 " fill-opacity="0.3" fill-rule="nonzero"/><path fill="#fec4ad" d="M 246.835938 98.730469 C 245.789062 97.214844 245.003906 97.5 244.394531 97.308594 C 243.789062 97.113281 242.554688 98.039062 242.320312 98.953125 C 242.085938 99.863281 241.890625 99.878906 241.996094 100.566406 C 242.105469 101.253906 243.976562 101.179688 244.847656 101.136719 C 245.71875 101.097656 248.417969 101.628906 248.417969 101.628906 L 250.980469 98.757812 Z M 246.835938 98.730469 " fill-opacity="1" fill-rule="nonzero"/><path fill="#fec4ad" d="M 247.964844 98.308594 C 247.214844 96.953125 246.589844 97.492188 245.652344 97.84375 C 244.714844 98.199219 243.410156 98.996094 243.410156 98.996094 C 243.410156 98.996094 243.199219 99.839844 243.824219 100.054688 C 244.449219 100.265625 246.199219 99.503906 246.539062 100.597656 C 246.878906 101.691406 250.980469 98.757812 250.980469 98.757812 Z M 247.964844 98.308594 " fill-opacity="1" fill-rule="nonzero"/><path fill="#0f2e40" d="M 275.164062 80.015625 C 272.417969 79.691406 270.632812 81.28125 269.160156 88.265625 C 268 93.789062 265.511719 97.90625 265.511719 97.90625 L 248.621094 98.195312 L 247.535156 101.578125 C 247.535156 101.578125 264.324219 104.785156 267.902344 104.304688 C 272.847656 103.636719 275.421875 95.179688 277.851562 88.589844 C 279.574219 83.925781 278.910156 80.460938 275.164062 80.015625 Z M 275.164062 80.015625 " fill-opacity="1" fill-rule="nonzero"/><path fill="#fec4ad" d="M 255.996094 72.875 C 256.625 74.363281 257.0625 75.777344 257.652344 76.695312 C 258.246094 77.609375 257.84375 79.429688 257.613281 80.242188 C 257.386719 81.054688 259.167969 80.886719 259.167969 80.886719 C 259.167969 80.886719 260.269531 81.742188 261.578125 83.535156 C 262.160156 84.332031 263.667969 83.320312 264.707031 82.980469 C 265.742188 82.640625 266.171875 81.402344 267.394531 79.6875 C 268.613281 77.96875 268.9375 75.132812 268.9375 75.132812 L 267.375 69.289062 L 260.5625 68.714844 Z M 255.996094 72.875 " fill-opacity="1" fill-rule="nonzero"/><path fill="#471a16" d="M 256.410156 73.90625 C 254.410156 74.324219 251.113281 70.300781 255.875 68.75 C 258.042969 68.042969 262.585938 64.691406 264.820312 65.683594 C 267.054688 66.675781 267.289062 68.398438 267.289062 68.398438 C 267.289062 68.398438 268.5625 67.964844 269.84375 70.554688 C 271.121094 73.140625 269.410156 78.578125 269.65625 80.046875 L 266.558594 77.542969 C 266.558594 77.542969 268.023438 75.722656 267.335938 74.167969 C 266.648438 72.617188 264.246094 72.632812 264.390625 74.253906 C 264.53125 75.875 263.65625 76.191406 263.65625 76.191406 C 263.65625 76.191406 262.253906 74.855469 262.539062 73.816406 C 263.074219 71.878906 259.828125 69.992188 259.136719 71.226562 C 258.445312 72.460938 258.179688 73.539062 256.410156 73.90625 Z M 256.410156 73.90625 " fill-opacity="1" fill-rule="nonzero"/><path fill="#fec4ad" d="M 272.765625 78.949219 C 272.476562 78.96875 272.265625 78.972656 272.179688 78.953125 C 271.378906 78.75 266.386719 77.125 266.386719 77.125 L 265.441406 82.765625 C 265.441406 82.765625 272.203125 87.6875 274.597656 88.886719 C 273.863281 85.597656 273.226562 82.292969 272.765625 78.949219 Z M 272.765625 78.949219 " fill-opacity="1" fill-rule="nonzero"/><path fill="#133a50" d="M 271.660156 78.203125 L 269.195312 87.386719 L 271.414062 88.863281 L 274.046875 78.625 Z M 271.660156 78.203125 " fill-opacity="1" fill-rule="nonzero"/><path fill="#133a50" d="M 274.046875 78.625 C 274.046875 78.625 275.664062 78.589844 277.863281 78.554688 C 281.515625 78.496094 288.660156 81.441406 292.796875 84.613281 C 299.421875 89.699219 306.386719 103.222656 306.386719 103.222656 C 306.386719 103.222656 303.707031 105.761719 299.480469 107.3125 C 295.25 108.863281 290.882812 109.289062 290.882812 109.289062 C 290.882812 109.289062 284.105469 98.898438 278.75 97.714844 C 273.394531 96.535156 270.105469 92.648438 270.105469 92.648438 Z M 274.046875 78.625 " fill-opacity="1" fill-rule="nonzero"/><path fill="#0f2e40" d="M 306.386719 103.222656 C 308.277344 108.140625 307.878906 114.359375 306.378906 118.8125 C 305.171875 122.390625 302.792969 129.957031 301.484375 137.320312 C 300.71875 141.632812 305.074219 153.902344 309.816406 164.058594 L 304.664062 166.867188 C 304.664062 166.867188 290.71875 146.003906 290.71875 139.832031 C 290.71875 133.660156 290.882812 109.289062 290.882812 109.289062 Z M 306.386719 103.222656 " fill-opacity="1" fill-rule="nonzero"/><path fill="#0f2e40" d="M 309.816406 164.058594 L 312.621094 169.375 L 306.074219 173.171875 L 303.214844 173.171875 L 306.710938 168.691406 L 305.363281 166.164062 Z M 309.816406 164.058594 " fill-opacity="1" fill-rule="nonzero"/><path fill="#133a50" d="M 305.921875 103.929688 C 307.8125 108.847656 307.183594 114.996094 305.914062 119.519531 C 304.644531 124.046875 292.925781 137.125 292.253906 140.730469 C 290.882812 148.132812 285.441406 165.921875 285.441406 165.921875 L 279.550781 165.921875 C 279.550781 165.921875 282.695312 146.003906 282.695312 139.832031 C 282.695312 133.660156 290.417969 109.996094 290.417969 109.996094 Z M 305.921875 103.929688 " fill-opacity="1" fill-rule="nonzero"/><path fill="#133a50" d="M 285.441406 165.921875 L 284.742188 172.640625 L 275.839844 172.78125 L 279.714844 169.851562 L 280.953125 165.921875 Z M 285.441406 165.921875 " fill-opacity="1" fill-rule="nonzero"/><path fill="#133a50" d="M 240.484375 94.5 L 238.359375 96.269531 L 233.078125 89.84375 L 235.203125 88.074219 Z M 240.484375 94.5 " fill-opacity="1" fill-rule="nonzero"/><path fill="#ff3a46" d="M 253.132812 109.992188 L 251.09375 111.695312 C 250.707031 112.015625 250.132812 111.964844 249.8125 111.578125 L 237.011719 95.988281 C 236.691406 95.601562 236.746094 95.027344 237.128906 94.707031 L 239.171875 93.003906 C 239.558594 92.683594 240.132812 92.734375 240.453125 93.121094 L 253.25 108.710938 C 253.574219 109.097656 253.519531 109.671875 253.132812 109.992188 Z M 253.132812 109.992188 " fill-opacity="1" fill-rule="nonzero"/><path fill="#ff3a46" d="M 235.679688 67.230469 C 229.542969 57.988281 219.9375 53.574219 214.230469 57.371094 C 208.523438 61.167969 208.871094 71.738281 215.007812 80.980469 C 221.148438 90.222656 230.75 94.636719 236.457031 90.839844 C 242.164062 87.042969 241.816406 76.472656 235.679688 67.230469 Z M 235.933594 88.320312 C 235.492188 88.613281 235.007812 88.820312 234.5 88.980469 C 229.808594 90.457031 222.582031 86.34375 217.792969 79.128906 C 213 71.914062 212.007812 63.652344 215.1875 59.898438 C 215.53125 59.492188 215.90625 59.121094 216.347656 58.828125 C 220.871094 55.820312 229.179688 60.03125 234.488281 68.023438 C 239.796875 76.015625 240.457031 85.3125 235.933594 88.320312 Z M 235.933594 88.320312 " fill-opacity="1" fill-rule="nonzero"/><path fill="#133a50" d="M 234.488281 68.023438 C 229.179688 60.03125 220.871094 55.820312 216.347656 58.828125 C 215.90625 59.121094 215.53125 59.492188 215.1875 59.898438 C 219.878906 58.417969 227.105469 62.53125 231.894531 69.746094 C 236.6875 76.960938 237.679688 85.222656 234.5 88.980469 C 235.007812 88.820312 235.492188 88.613281 235.933594 88.320312 C 240.457031 85.3125 239.796875 76.015625 234.488281 68.023438 Z M 234.488281 68.023438 " fill-opacity="1" fill-rule="nonzero"/><path fill="#133a50" d="M 215.007812 80.980469 C 208.871094 71.738281 208.523438 61.167969 214.230469 57.371094 L 211.375 59.269531 C 205.667969 63.066406 206.015625 73.636719 212.152344 82.878906 C 218.289062 92.121094 227.894531 96.535156 233.601562 92.738281 L 236.457031 90.839844 C 230.75 94.636719 221.148438 90.222656 215.007812 80.980469 Z M 215.007812 80.980469 " fill-opacity="1" fill-rule="nonzero"/><path fill="#fec4ad" d="M 251.207031 103.277344 C 251.207031 103.277344 246.609375 102.398438 245.574219 102.636719 C 244.535156 102.871094 241.707031 104.671875 241.707031 104.671875 L 242.132812 104.921875 L 243.140625 104.855469 L 242.378906 105.40625 L 242.976562 105.917969 L 243.707031 105.710938 L 244.671875 105.667969 L 243.394531 106.230469 L 244.011719 106.601562 L 245.433594 106.429688 L 244.511719 106.875 L 244.886719 107.355469 L 248.25 106.175781 L 250.371094 105.304688 L 252.839844 105.789062 Z M 251.207031 103.277344 " fill-opacity="1" fill-rule="nonzero"/><path fill="#133a50" d="M 274.707031 80.722656 C 272.082031 79.851562 270.164062 81.875 270.257812 89.011719 C 270.34375 95.1875 269.433594 100.4375 269.433594 100.4375 L 251.207031 103.277344 L 250.804688 106.808594 C 250.804688 106.808594 269 106.90625 272.589844 107.316406 C 276.179688 107.726562 276.992188 96.597656 277.554688 91.660156 C 278.117188 86.71875 278.289062 81.910156 274.707031 80.722656 Z M 274.707031 80.722656 " fill-opacity="1" fill-rule="nonzero"/><path fill="#c9cdd8" d="M 128.597656 85.96875 L 160.390625 85.96875 L 160.390625 88.066406 L 128.597656 88.066406 Z M 128.597656 85.96875 " fill-opacity="1" fill-rule="nonzero"/><path fill="#4fae86" d="M 123.949219 85.96875 L 126.0625 85.96875 L 126.0625 88.066406 L 123.949219 88.066406 Z M 123.949219 85.96875 " fill-opacity="1" fill-rule="nonzero"/><path fill="#4fae86" d="M 123.949219 90.414062 L 126.0625 90.414062 L 126.0625 92.511719 L 123.949219 92.511719 Z M 123.949219 90.414062 " fill-opacity="1" fill-rule="nonzero"/><path fill="#4fae86" d="M 123.949219 94.859375 L 126.0625 94.859375 L 126.0625 96.957031 L 123.949219 96.957031 Z M 123.949219 94.859375 " fill-opacity="1" fill-rule="nonzero"/><path fill="#c9cdd8" d="M 128.597656 90.414062 L 155.5 90.414062 L 155.5 92.511719 L 128.597656 92.511719 Z M 128.597656 90.414062 " fill-opacity="1" fill-rule="nonzero"/><path fill="#c9cdd8" d="M 128.597656 94.859375 L 168.078125 94.859375 L 168.078125 96.957031 L 128.597656 96.957031 Z M 128.597656 94.859375 " fill-opacity="1" fill-rule="nonzero"/><path fill="#c9cdd8" d="M 128.597656 99.304688 L 164.585938 99.304688 L 164.585938 101.402344 L 128.597656 101.402344 Z M 128.597656 99.304688 " fill-opacity="1" fill-rule="nonzero"/><path fill="#4fae86" d="M 143.640625 108.703125 L 158.808594 108.703125 L 158.808594 109.753906 L 143.640625 109.753906 Z M 143.640625 108.703125 " fill-opacity="1" fill-rule="nonzero"/><path fill="#ff3a46" d="M 159.730469 52.417969 L 184.945312 52.417969 L 184.945312 57.484375 L 159.730469 57.484375 Z M 159.730469 52.417969 " fill-opacity="1" fill-rule="nonzero"/><path fill="#4fae86" d="M 188.960938 107.660156 L 199.09375 107.660156 L 199.09375 109.757812 L 188.960938 109.757812 Z M 188.960938 107.660156 " fill-opacity="1" fill-rule="nonzero"/><path fill="#4fae86" d="M 204.335938 107.660156 L 229.492188 107.660156 L 229.492188 109.757812 L 204.335938 109.757812 Z M 204.335938 107.660156 " fill-opacity="1" fill-rule="nonzero"/><path stroke-linecap="butt" transform="matrix(0.623322, 0, 0, 0.623836, -42.027868, -33.133795)" fill="none" stroke-linejoin="miter" d="M 97.725704 329.621503 L 652.270751 329.621503 " stroke="#4e5683" stroke-width="1" stroke-opacity="1" stroke-miterlimit="10"/></svg>